<?xml version="1.0" encoding="UTF-8" standalone="no"?>
<!-- Created with Inkscape (http://www.inkscape.org/) -->

<svg
   xmlns:dc="http://purl.org/dc/elements/1.1/"
   xmlns:cc="http://creativecommons.org/ns#"
   xmlns:rdf="http://www.w3.org/1999/02/22-rdf-syntax-ns#"
   xmlns:svg="http://www.w3.org/2000/svg"
   xmlns="http://www.w3.org/2000/svg"
   xmlns:inkscape="http://www.inkscape.org/namespaces/inkscape"
   version="1.1"
   width="437.56299"
   height="437.63391"
   id="svg2"
   xml:space="preserve"><metadata
     id="metadata8"><rdf:RDF><cc:Work
         rdf:about=""><dc:format>image/svg+xml</dc:format><dc:type
           rdf:resource="http://purl.org/dc/dcmitype/StillImage" /></cc:Work></rdf:RDF></metadata><defs
     id="defs6"><clipPath
       id="clipPath20"><path
         d="M 0,0 351,0 351,351 0,351 0,0 z"
         inkscape:connector-curvature="0"
         id="path22" /></clipPath><clipPath
       id="clipPath24"><path
         d="m 0,351 350.051,0 0,-350.105 L 0,0.895 0,351 z"
         inkscape:connector-curvature="0"
         id="path26" /></clipPath><clipPath
       id="clipPath28"><path
         d="M 0,0 351,0 351,351 0,351 0,0 z"
         inkscape:connector-curvature="0"
         id="path30" /></clipPath></defs><g
     transform="matrix(1.25,0,0,-1.25,0,437.6339)"
     id="g10"><g
       id="g12" /><g
       id="g14"><g
         transform="translate(0,-0.892883)"
         id="g16"><g
           id="g18" /><g
           id="g32"><g
             clip-path="url(#clipPath20)"
             id="g34"><g
               id="g36"><g
                 clip-path="url(#clipPath24)"
                 id="g38"><g
                   id="g40"><g
                     id="g42" /><g
                     id="g44"><g
                       clip-path="url(#clipPath28)"
                       id="g46"><g
                         id="g48" /><g
                         id="g50"><path
                           d="m 25.059,300.941 -25.032,0 0,50.032 50.032,0 0,-50.032 -25,0 z"
                           inkscape:connector-curvature="0"
                           id="path52"
                           style="fill:#000000;fill-opacity:1;fill-rule:nonzero;stroke:none" /><path
                           d="m 33.48,316.352 c 0.145,0.32 0.598,1.375 1.36,3.156 0.769,1.777 1.281,2.957 1.531,3.531 0.246,0.582 0.723,1.695 1.422,3.344 0.707,1.644 1.219,2.859 1.531,3.64 0.321,0.778 0.754,1.864 1.297,3.25 0.539,1.383 0.969,2.504 1.281,3.36 0.309,0.863 0.633,1.801 0.969,2.812 0.332,1.02 0.602,1.922 0.813,2.703 0.402,-0.093 1.234,-0.14 2.484,-0.14 0.77,0 1.359,0.047 1.766,0.14 -6.45,-14.105 -11.368,-25.066 -14.75,-32.875 l -1.407,0 c -1.961,5.477 -4.152,11.5 -6.578,18.063 l -8.031,-18.063 -1.391,0 c -1.074,2.582 -2.675,6.485 -4.797,11.704 -2.125,5.226 -3.96,9.691 -5.5,13.39 -1.531,3.695 -2.664,6.289 -3.39,7.781 0.558,-0.093 1.562,-0.14 3,-0.14 1.082,0 1.91,0.047 2.484,0.14 0.309,-1.086 0.727,-2.46 1.25,-4.125 0.528,-1.656 1.594,-4.589 3.188,-8.796 1.601,-4.211 3.41,-8.649 5.422,-13.313 l 0.109,0 c 2.977,6.895 5.094,11.875 6.344,14.938 -2.438,6.488 -3.871,10.253 -4.297,11.296 0.57,-0.093 1.566,-0.14 2.984,-0.14 1.258,0 2.176,0.047 2.75,0.14 0.926,-4.117 3.614,-12.714 8.063,-25.796 l 0.093,0 z"
                           inkscape:connector-curvature="0"
                           id="path54"
                           style="fill:#ffffff;fill-opacity:1;fill-rule:nonzero;stroke:none" /><path
                           d="m 75.004,300.941 -25.027,0 0,50.032 50.031,0 0,-50.032 -25.004,0 z"
                           inkscape:connector-curvature="0"
                           id="path56"
                           style="fill:#ffffff;fill-opacity:1;fill-rule:nonzero;stroke:none" /><path
                           d="m 79.633,323.523 c -1.574,4.122 -3.258,8.235 -5.047,12.329 l -0.109,0 -5.266,-12.297 c 2.195,-0.106 3.937,-0.157 5.219,-0.157 1.632,0 3.367,0.04 5.203,0.125 z M 68.227,321.18 c -2.012,-4.961 -3.395,-8.817 -4.141,-11.563 -0.406,0.094 -1.164,0.141 -2.266,0.141 -0.75,0 -1.332,-0.047 -1.734,-0.141 5.496,12.051 10.41,23.067 14.734,33.047 l 1.391,0 c 1.121,-2.687 2.734,-6.629 4.828,-11.812 2.09,-5.18 3.91,-9.645 5.453,-13.391 1.551,-3.75 2.692,-6.367 3.422,-7.844 -0.574,0.094 -1.57,0.141 -2.984,0.141 -1.106,0 -1.946,-0.047 -2.516,-0.141 -0.73,2.727 -2.023,6.582 -3.875,11.563 -1.355,0.082 -3.309,0.125 -5.859,0.125 -2.918,0 -5.071,-0.043 -6.453,-0.125 z"
                           inkscape:connector-curvature="0"
                           id="path58"
                           style="fill:#000000;fill-opacity:1;fill-rule:nonzero;stroke:none" /><path
                           d="m 125.066,300.941 -25.031,0 0,50.032 50.031,0 0,-50.032 -25,0 z"
                           inkscape:connector-curvature="0"
                           id="path60"
                           style="fill:#000000;fill-opacity:1;fill-rule:nonzero;stroke:none" /><path
                           d="m 124.504,311.461 c 1.582,0 2.945,0.523 4.094,1.578 1.152,1.051 1.734,2.473 1.734,4.266 0,1.019 -0.144,1.925 -0.422,2.718 -0.281,0.789 -0.715,1.461 -1.297,2.016 -0.574,0.551 -1.175,1.016 -1.797,1.391 -0.625,0.371 -1.398,0.75 -2.312,1.125 -0.961,0.402 -1.801,0.789 -2.516,1.156 -0.718,0.363 -1.488,0.832 -2.297,1.406 -0.812,0.582 -1.476,1.18 -1.984,1.797 -0.512,0.621 -0.945,1.375 -1.297,2.25 -0.355,0.883 -0.531,1.832 -0.531,2.844 0,1.738 0.531,3.304 1.594,4.703 1.058,1.402 2.375,2.441 3.937,3.109 1.34,0.559 2.774,0.844 4.297,0.844 1.082,0 2.098,-0.082 3.047,-0.234 0.957,-0.149 1.719,-0.336 2.281,-0.563 0.57,-0.219 1.067,-0.445 1.485,-0.672 0.414,-0.218 0.707,-0.414 0.875,-0.578 l 0.234,-0.219 0.109,-0.14 c -0.636,-2.168 -1.023,-3.84 -1.156,-5.016 l -0.484,-0.047 c -0.688,1.559 -1.66,2.828 -2.907,3.797 -1.242,0.965 -2.543,1.453 -3.906,1.453 -1.273,0 -2.289,-0.195 -3.047,-0.578 -0.656,-0.367 -1.207,-0.98 -1.64,-1.844 -0.438,-0.855 -0.657,-1.742 -0.657,-2.656 0,-0.793 0.133,-1.527 0.407,-2.203 0.277,-0.668 0.609,-1.215 0.984,-1.641 0.371,-0.418 0.867,-0.824 1.484,-1.218 0.622,-0.387 1.157,-0.676 1.594,-0.86 0.434,-0.187 0.977,-0.402 1.625,-0.64 0.914,-0.344 1.75,-0.7 2.5,-1.063 0.758,-0.367 1.555,-0.847 2.391,-1.437 0.84,-0.594 1.547,-1.231 2.109,-1.907 0.559,-0.679 1.031,-1.496 1.406,-2.453 0.371,-0.961 0.563,-2.004 0.563,-3.125 0,-2.855 -1.039,-5.164 -3.109,-6.922 -2.063,-1.75 -4.668,-2.625 -7.813,-2.625 -1.086,0 -2.144,0.082 -3.172,0.235 -1.023,0.148 -1.883,0.328 -2.578,0.547 -0.687,0.226 -1.301,0.453 -1.828,0.672 -0.524,0.214 -0.91,0.398 -1.156,0.546 l -0.36,0.25 -0.109,0.141 c 0.051,0.164 0.156,0.547 0.312,1.141 0.164,0.59 0.289,1.047 0.375,1.359 0.082,0.32 0.172,0.738 0.266,1.25 0.102,0.508 0.176,0.977 0.219,1.406 l 0.5,0.047 c 0.758,-1.48 1.926,-2.754 3.5,-3.812 1.57,-1.063 3.054,-1.594 4.453,-1.594 z"
                           inkscape:connector-curvature="0"
                           id="path62"
                           style="fill:#ffffff;fill-opacity:1;fill-rule:nonzero;stroke:none" /><path
                           d="m 175.066,300.941 -25.027,0 0,50.032 50.031,0 0,-50.032 -25.004,0 z"
                           inkscape:connector-curvature="0"
                           id="path64"
                           style="fill:#ffffff;fill-opacity:1;fill-rule:nonzero;stroke:none" /><path
                           d="m 174.508,311.461 c 1.582,0 2.945,0.523 4.094,1.578 1.152,1.051 1.734,2.473 1.734,4.266 0,1.019 -0.145,1.925 -0.422,2.718 -0.281,0.789 -0.715,1.461 -1.297,2.016 -0.574,0.551 -1.176,1.016 -1.797,1.391 -0.625,0.371 -1.398,0.75 -2.312,1.125 -0.961,0.402 -1.801,0.789 -2.516,1.156 -0.719,0.363 -1.488,0.832 -2.297,1.406 -0.812,0.582 -1.476,1.18 -1.984,1.797 -0.512,0.621 -0.945,1.375 -1.297,2.25 -0.355,0.883 -0.531,1.832 -0.531,2.844 0,1.738 0.531,3.304 1.594,4.703 1.058,1.402 2.375,2.441 3.937,3.109 1.34,0.559 2.774,0.844 4.297,0.844 1.082,0 2.098,-0.082 3.047,-0.234 0.957,-0.149 1.719,-0.336 2.281,-0.563 0.57,-0.219 1.066,-0.445 1.484,-0.672 0.415,-0.218 0.707,-0.414 0.875,-0.578 l 0.235,-0.219 0.109,-0.14 c -0.637,-2.168 -1.023,-3.84 -1.156,-5.016 l -0.484,-0.047 c -0.688,1.559 -1.661,2.828 -2.907,3.797 -1.242,0.965 -2.543,1.453 -3.906,1.453 -1.273,0 -2.289,-0.195 -3.047,-0.578 -0.656,-0.367 -1.207,-0.98 -1.64,-1.844 -0.438,-0.855 -0.657,-1.742 -0.657,-2.656 0,-0.793 0.133,-1.527 0.407,-2.203 0.277,-0.668 0.609,-1.215 0.984,-1.641 0.371,-0.418 0.867,-0.824 1.484,-1.218 0.621,-0.387 1.157,-0.676 1.594,-0.86 0.434,-0.187 0.977,-0.402 1.625,-0.64 0.914,-0.344 1.75,-0.7 2.5,-1.063 0.758,-0.367 1.555,-0.847 2.391,-1.437 0.84,-0.594 1.547,-1.231 2.109,-1.907 0.559,-0.679 1.031,-1.496 1.406,-2.453 0.371,-0.961 0.563,-2.004 0.563,-3.125 0,-2.855 -1.039,-5.164 -3.11,-6.922 -2.062,-1.75 -4.668,-2.625 -7.812,-2.625 -1.086,0 -2.145,0.082 -3.172,0.235 -1.023,0.148 -1.883,0.328 -2.578,0.547 -0.688,0.226 -1.301,0.453 -1.828,0.672 -0.524,0.214 -0.91,0.398 -1.156,0.546 l -0.36,0.25 -0.109,0.141 c 0.051,0.164 0.156,0.547 0.312,1.141 0.164,0.59 0.289,1.047 0.375,1.359 0.082,0.32 0.172,0.738 0.266,1.25 0.102,0.508 0.176,0.977 0.219,1.406 l 0.5,0.047 c 0.757,-1.48 1.925,-2.754 3.5,-3.812 1.57,-1.063 3.054,-1.594 4.453,-1.594 z"
                           inkscape:connector-curvature="0"
                           id="path66"
                           style="fill:#000000;fill-opacity:1;fill-rule:nonzero;stroke:none" /><path
                           d="m 225.07,300.941 -25.031,0 0,50.032 50.035,0 0,-50.032 -25.004,0 z"
                           inkscape:connector-curvature="0"
                           id="path68"
                           style="fill:#000000;fill-opacity:1;fill-rule:nonzero;stroke:none" /><path
                           d="m 229.699,323.523 c -1.574,4.122 -3.258,8.235 -5.047,12.329 l -0.109,0 -5.266,-12.297 c 2.196,-0.106 3.938,-0.157 5.219,-0.157 1.633,0 3.367,0.04 5.203,0.125 z m -11.406,-2.343 c -2.012,-4.961 -3.395,-8.817 -4.141,-11.563 -0.406,0.094 -1.164,0.141 -2.265,0.141 -0.75,0 -1.332,-0.047 -1.735,-0.141 5.496,12.051 10.41,23.067 14.735,33.047 l 1.39,0 c 1.121,-2.687 2.735,-6.629 4.828,-11.812 2.09,-5.18 3.911,-9.645 5.454,-13.391 1.55,-3.75 2.691,-6.367 3.421,-7.844 -0.574,0.094 -1.57,0.141 -2.984,0.141 -1.105,0 -1.945,-0.047 -2.516,-0.141 -0.73,2.727 -2.023,6.582 -3.875,11.563 -1.355,0.082 -3.308,0.125 -5.859,0.125 -2.918,0 -5.07,-0.043 -6.453,-0.125 z"
                           inkscape:connector-curvature="0"
                           id="path70"
                           style="fill:#ffffff;fill-opacity:1;fill-rule:nonzero;stroke:none" /><path
                           d="m 275.074,300.941 -25.031,0 0,50.032 50.031,0 0,-50.032 -25,0 z"
                           inkscape:connector-curvature="0"
                           id="path72"
                           style="fill:#ffffff;fill-opacity:1;fill-rule:nonzero;stroke:none" /><path
                           d="m 272.879,331.992 c 0,4.301 -0.164,7.641 -0.484,10.016 l 0.093,0.14 c 0.602,-0.093 1.446,-0.14 2.532,-0.14 1.089,0 1.945,0.047 2.562,0.14 l 0.109,-0.14 c -0.343,-2.324 -0.515,-5.664 -0.515,-10.016 l 0,-12.219 c 0,-4.168 0.172,-7.507 0.515,-10.015 l -0.109,-0.141 c -0.617,0.094 -1.473,0.141 -2.562,0.141 -1.086,0 -1.93,-0.047 -2.532,-0.141 l -0.093,0.141 c 0.32,2.258 0.484,5.597 0.484,10.015 l 0,12.219 z"
                           inkscape:connector-curvature="0"
                           id="path74"
                           style="fill:#000000;fill-opacity:1;fill-rule:nonzero;stroke:none" /><path
                           d="m 325.078,300.941 -25.031,0 0,50.032 50.031,0 0,-50.032 -25,0 z"
                           inkscape:connector-curvature="0"
                           id="path76"
                           style="fill:#000000;fill-opacity:1;fill-rule:nonzero;stroke:none" /><path
                           d="m 321.699,331.992 0,-12.219 c 0,-3.679 0.141,-6.003 0.422,-6.968 1.977,0 4.141,0.093 6.484,0.281 2.34,0.184 4.196,0.367 5.563,0.547 l 2.031,0.281 0.094,-0.203 c -0.063,-0.523 -0.094,-1.106 -0.094,-1.75 0,-0.523 0.031,-1.258 0.094,-2.203 l -0.094,-0.141 c -0.793,0.094 -1.793,0.141 -3,0.141 l -13.656,0 c -0.5,0 -0.973,-0.008 -1.406,-0.031 -0.43,-0.028 -0.731,-0.051 -0.907,-0.063 l -0.265,-0.047 -0.047,0.141 c 0.32,2.258 0.484,5.597 0.484,10.015 l 0,12.219 c 0,4.301 -0.164,7.641 -0.484,10.016 l 0.094,0.14 c 0.601,-0.093 1.445,-0.14 2.531,-0.14 1.121,0 2,0.047 2.625,0.14 l 0.047,-0.14 c -0.344,-2.324 -0.516,-5.664 -0.516,-10.016 z"
                           inkscape:connector-curvature="0"
                           id="path78"
                           style="fill:#ffffff;fill-opacity:1;fill-rule:nonzero;stroke:none" /><path
                           d="m 25.059,250.91 -25.032,0 0,50.031 50.032,0 0,-50.031 -25,0 z"
                           inkscape:connector-curvature="0"
                           id="path80"
                           style="fill:#ffffff;fill-opacity:1;fill-rule:nonzero;stroke:none" /><path
                           d="m 29.684,273.488 c -1.575,4.121 -3.258,8.235 -5.047,12.328 l -0.11,0 -5.265,-12.296 c 2.195,-0.106 3.937,-0.157 5.218,-0.157 1.633,0 3.368,0.039 5.204,0.125 z m -11.407,-2.343 c -2.011,-4.961 -3.394,-8.817 -4.14,-11.563 -0.407,0.094 -1.164,0.141 -2.266,0.141 -0.75,0 -1.332,-0.047 -1.734,-0.141 5.496,12.051 10.41,23.066 14.734,33.047 l 1.391,0 c 1.121,-2.688 2.734,-6.629 4.828,-11.813 2.09,-5.179 3.91,-9.644 5.453,-13.39 1.551,-3.75 2.691,-6.367 3.422,-7.844 -0.574,0.094 -1.57,0.141 -2.985,0.141 -1.105,0 -1.945,-0.047 -2.515,-0.141 -0.731,2.727 -2.024,6.582 -3.875,11.563 -1.356,0.082 -3.309,0.125 -5.86,0.125 -2.918,0 -5.07,-0.043 -6.453,-0.125 z"
                           inkscape:connector-curvature="0"
                           id="path82"
                           style="fill:#000000;fill-opacity:1;fill-rule:nonzero;stroke:none" /><path
                           d="m 75.004,250.91 -25.027,0 0,50.031 50.031,0 0,-50.031 -25.004,0 z"
                           inkscape:connector-curvature="0"
                           id="path84"
                           style="fill:#000000;fill-opacity:1;fill-rule:nonzero;stroke:none" /><path
                           d="m 62.422,291.973 0.109,0.14 c 0.258,-0.093 0.957,-0.14 2.094,-0.14 l 0.703,0.093 17.141,-22.187 c 1.176,-1.512 1.879,-2.367 2.109,-2.563 0.402,-0.355 0.664,-0.242 0.781,0.344 0.028,0.227 0.051,0.551 0.063,0.969 l 0,13.328 c 0,4.301 -0.164,7.641 -0.484,10.016 l 0.093,0.14 c 0.602,-0.093 1.192,-0.14 1.766,-0.14 0.527,0 1.109,0.047 1.734,0.14 l 0.094,-0.14 c -0.199,-2.606 -0.355,-5.336 -0.469,-8.188 -0.117,-2.855 -0.199,-5.215 -0.25,-7.078 -0.043,-1.867 -0.097,-4.551 -0.156,-8.047 -0.055,-3.5 -0.098,-6.133 -0.125,-7.89 -0.055,-1.024 -0.371,-1.532 -0.953,-1.532 -0.844,0 -1.567,0.399 -2.156,1.188 l -17.422,22.047 c -0.344,0.433 -0.614,0.769 -0.797,1 -0.188,0.226 -0.367,0.398 -0.531,0.515 -0.157,0.114 -0.274,0.153 -0.344,0.125 -0.074,-0.023 -0.137,-0.148 -0.188,-0.375 -0.054,-0.218 -0.086,-0.48 -0.093,-0.781 0,-0.293 0,-0.723 0,-1.281 l 0,-11.938 c 0,-4.304 0.16,-7.644 0.484,-10.015 l -0.094,-0.141 c -0.625,0.094 -1.215,0.141 -1.765,0.141 -0.555,0 -1.133,-0.047 -1.735,-0.141 l -0.093,0.141 c 0.394,3.839 0.628,9.019 0.703,15.531 0.082,6.519 0.007,12.094 -0.219,16.719 z"
                           inkscape:connector-curvature="0"
                           id="path86"
                           style="fill:#ffffff;fill-opacity:1;fill-rule:nonzero;stroke:none" /><path
                           d="m 125.066,250.91 -25.031,0 0,50.031 50.031,0 0,-50.031 -25,0 z"
                           inkscape:connector-curvature="0"
                           id="path88"
                           style="fill:#ffffff;fill-opacity:1;fill-rule:nonzero;stroke:none" /><path
                           d="m 122.902,281.957 c 0,3.895 -0.132,6.297 -0.39,7.203 -1.992,0 -3.832,-0.058 -5.516,-0.172 -1.68,-0.105 -2.863,-0.215 -3.547,-0.328 l -1.047,-0.172 -0.109,0.188 c 0.102,0.777 0.102,1.879 0,3.297 l 0.109,0.14 c 0.789,-0.093 1.789,-0.14 3,-0.14 l 19.282,0 c 1.207,0 2.207,0.047 3,0.14 l 0.109,-0.14 c -0.105,-1.418 -0.105,-2.52 0,-3.297 l -0.109,-0.188 c -2.293,0.446 -5.661,0.672 -10.094,0.672 -0.262,-0.906 -0.391,-3.308 -0.391,-7.203 l 0,-12.219 c 0,-4.168 0.164,-7.508 0.5,-10.015 l -0.109,-0.141 c -0.606,0.094 -1.457,0.141 -2.547,0.141 -1.094,0 -1.941,-0.047 -2.531,-0.141 l -0.125,0.141 c 0.34,2.371 0.515,5.711 0.515,10.015 l 0,12.219 z"
                           inkscape:connector-curvature="0"
                           id="path90"
                           style="fill:#000000;fill-opacity:1;fill-rule:nonzero;stroke:none" /><path
                           d="m 175.066,250.91 -25.027,0 0,50.031 50.031,0 0,-50.031 -25.004,0 z"
                           inkscape:connector-curvature="0"
                           id="path92"
                           style="fill:#000000;fill-opacity:1;fill-rule:nonzero;stroke:none" /><path
                           d="m 171.102,269.738 c 0,-3.843 0.132,-6.246 0.406,-7.203 1.988,0 4.156,0.047 6.5,0.141 2.34,0.09 4.195,0.191 5.562,0.297 l 2.032,0.14 0.093,-0.187 c -0.062,-0.524 -0.093,-1.082 -0.093,-1.672 0,-0.074 0.031,-0.586 0.093,-1.531 l -0.093,-0.141 c -0.805,0.094 -1.805,0.141 -3,0.141 l -13.657,0 c -0.523,0 -0.996,-0.008 -1.422,-0.032 -0.429,-0.027 -0.726,-0.05 -0.89,-0.062 l -0.266,-0.047 -0.047,0.141 c 0.321,2.257 0.485,5.597 0.485,10.015 l 0,12.219 c 0,4.301 -0.164,7.641 -0.485,10.016 l 0.094,0.14 c 0.551,-0.093 1.395,-0.14 2.531,-0.14 l 13.172,0 c 1.195,0 2.195,0.047 3,0.14 l 0.094,-0.14 c -0.063,-0.95 -0.094,-1.586 -0.094,-1.907 0,-0.343 0.031,-0.777 0.094,-1.296 l -0.094,-0.188 c -4.625,0.383 -9.164,0.578 -13.609,0.578 -0.274,-0.969 -0.406,-3.371 -0.406,-7.203 l 0,-3.875 c 3.496,0 7.218,0.16 11.156,0.484 l 0.14,-0.14 c -0.093,-0.438 -0.14,-0.977 -0.14,-1.61 0,-0.625 0.047,-1.16 0.14,-1.593 l -0.14,-0.141 c -3.274,0.32 -6.992,0.484 -11.156,0.484 l 0,-5.828 z"
                           inkscape:connector-curvature="0"
                           id="path94"
                           style="fill:#ffffff;fill-opacity:1;fill-rule:nonzero;stroke:none" /><path
                           d="m 225.07,250.91 -25.031,0 0,50.031 50.035,0 0,-50.031 -25.004,0 z"
                           inkscape:connector-curvature="0"
                           id="path96"
                           style="fill:#ffffff;fill-opacity:1;fill-rule:nonzero;stroke:none" /><path
                           d="m 212.488,291.973 0.11,0.14 c 0.257,-0.093 0.957,-0.14 2.093,-0.14 l 0.704,0.093 17.14,-22.187 c 1.176,-1.512 1.879,-2.367 2.11,-2.563 0.402,-0.355 0.664,-0.242 0.781,0.344 0.027,0.227 0.051,0.551 0.062,0.969 l 0,13.328 c 0,4.301 -0.164,7.641 -0.484,10.016 l 0.094,0.14 c 0.601,-0.093 1.191,-0.14 1.765,-0.14 0.528,0 1.11,0.047 1.735,0.14 l 0.093,-0.14 c -0.199,-2.606 -0.355,-5.336 -0.468,-8.188 -0.118,-2.855 -0.2,-5.215 -0.25,-7.078 -0.043,-1.867 -0.098,-4.551 -0.157,-8.047 -0.054,-3.5 -0.097,-6.133 -0.125,-7.89 -0.054,-1.024 -0.371,-1.532 -0.953,-1.532 -0.843,0 -1.566,0.399 -2.156,1.188 l -17.422,22.047 c -0.344,0.433 -0.613,0.769 -0.797,1 -0.187,0.226 -0.367,0.398 -0.531,0.515 -0.156,0.114 -0.273,0.153 -0.344,0.125 -0.074,-0.023 -0.136,-0.148 -0.187,-0.375 -0.055,-0.218 -0.086,-0.48 -0.094,-0.781 0,-0.293 0,-0.723 0,-1.281 l 0,-11.938 c 0,-4.304 0.16,-7.644 0.484,-10.015 l -0.093,-0.141 c -0.625,0.094 -1.215,0.141 -1.766,0.141 -0.555,0 -1.133,-0.047 -1.734,-0.141 l -0.094,0.141 c 0.394,3.839 0.629,9.019 0.703,15.531 0.082,6.519 0.008,12.094 -0.219,16.719 z"
                           inkscape:connector-curvature="0"
                           id="path98"
                           style="fill:#000000;fill-opacity:1;fill-rule:nonzero;stroke:none" /><path
                           d="m 275.074,250.91 -25.031,0 0,50.031 50.031,0 0,-50.031 -25,0 z"
                           inkscape:connector-curvature="0"
                           id="path100"
                           style="fill:#000000;fill-opacity:1;fill-rule:nonzero;stroke:none" /><path
                           d="m 262.492,291.973 0.11,0.14 c 0.257,-0.093 0.957,-0.14 2.093,-0.14 l 0.703,0.093 17.141,-22.187 c 1.176,-1.512 1.879,-2.367 2.109,-2.563 0.403,-0.355 0.664,-0.242 0.782,0.344 0.027,0.227 0.05,0.551 0.062,0.969 l 0,13.328 c 0,4.301 -0.164,7.641 -0.484,10.016 l 0.094,0.14 c 0.601,-0.093 1.191,-0.14 1.765,-0.14 0.528,0 1.11,0.047 1.735,0.14 l 0.093,-0.14 c -0.199,-2.606 -0.355,-5.336 -0.468,-8.188 -0.118,-2.855 -0.2,-5.215 -0.25,-7.078 -0.043,-1.867 -0.098,-4.551 -0.157,-8.047 -0.054,-3.5 -0.097,-6.133 -0.125,-7.89 -0.054,-1.024 -0.371,-1.532 -0.953,-1.532 -0.844,0 -1.566,0.399 -2.156,1.188 l -17.422,22.047 c -0.344,0.433 -0.613,0.769 -0.797,1 -0.187,0.226 -0.367,0.398 -0.531,0.515 -0.156,0.114 -0.274,0.153 -0.344,0.125 -0.074,-0.023 -0.137,-0.148 -0.187,-0.375 -0.055,-0.218 -0.086,-0.48 -0.094,-0.781 0,-0.293 0,-0.723 0,-1.281 l 0,-11.938 c 0,-4.304 0.16,-7.644 0.484,-10.015 l -0.093,-0.141 c -0.625,0.094 -1.215,0.141 -1.766,0.141 -0.555,0 -1.133,-0.047 -1.734,-0.141 l -0.094,0.141 c 0.394,3.839 0.629,9.019 0.703,15.531 0.082,6.519 0.008,12.094 -0.219,16.719 z"
                           inkscape:connector-curvature="0"
                           id="path102"
                           style="fill:#ffffff;fill-opacity:1;fill-rule:nonzero;stroke:none" /><path
                           d="m 325.078,250.91 -25.031,0 0,50.031 50.031,0 0,-50.031 -25,0 z"
                           inkscape:connector-curvature="0"
                           id="path104"
                           style="fill:#ffffff;fill-opacity:1;fill-rule:nonzero;stroke:none" /><path
                           d="m 329.703,273.488 c -1.574,4.121 -3.258,8.235 -5.047,12.328 l -0.109,0 -5.266,-12.296 c 2.196,-0.106 3.938,-0.157 5.219,-0.157 1.633,0 3.367,0.039 5.203,0.125 z m -11.406,-2.343 c -2.012,-4.961 -3.395,-8.817 -4.141,-11.563 -0.406,0.094 -1.164,0.141 -2.265,0.141 -0.75,0 -1.332,-0.047 -1.735,-0.141 5.496,12.051 10.41,23.066 14.735,33.047 l 1.39,0 c 1.121,-2.688 2.735,-6.629 4.828,-11.813 2.09,-5.179 3.911,-9.644 5.453,-13.39 1.551,-3.75 2.692,-6.367 3.422,-7.844 -0.574,0.094 -1.57,0.141 -2.984,0.141 -1.105,0 -1.945,-0.047 -2.516,-0.141 -0.73,2.727 -2.023,6.582 -3.875,11.563 -1.355,0.082 -3.308,0.125 -5.859,0.125 -2.918,0 -5.07,-0.043 -6.453,-0.125 z"
                           inkscape:connector-curvature="0"
                           id="path106"
                           style="fill:#000000;fill-opacity:1;fill-rule:nonzero;stroke:none" /><path
                           d="m 25.059,200.906 -25.032,0 0,50.032 50.032,0 0,-50.032 -25,0 z"
                           inkscape:connector-curvature="0"
                           id="path108"
                           style="fill:#000000;fill-opacity:1;fill-rule:nonzero;stroke:none" /><path
                           d="m 24.496,211.426 c 1.582,0 2.945,0.523 4.094,1.578 1.152,1.051 1.734,2.473 1.734,4.266 0,1.019 -0.144,1.925 -0.422,2.718 -0.281,0.789 -0.714,1.461 -1.297,2.016 -0.574,0.551 -1.175,1.016 -1.796,1.391 -0.625,0.371 -1.399,0.75 -2.313,1.125 -0.961,0.402 -1.801,0.789 -2.516,1.156 -0.718,0.363 -1.488,0.832 -2.296,1.406 -0.813,0.582 -1.477,1.18 -1.985,1.797 -0.511,0.621 -0.945,1.375 -1.297,2.25 -0.355,0.883 -0.531,1.832 -0.531,2.844 0,1.738 0.531,3.304 1.594,4.703 1.058,1.402 2.375,2.441 3.937,3.109 1.34,0.559 2.774,0.844 4.297,0.844 1.082,0 2.098,-0.082 3.047,-0.234 0.957,-0.149 1.719,-0.336 2.281,-0.563 0.571,-0.219 1.067,-0.445 1.485,-0.672 0.414,-0.219 0.707,-0.414 0.875,-0.578 l 0.234,-0.219 0.109,-0.14 c -0.636,-2.168 -1.023,-3.84 -1.156,-5.016 L 32.09,235.16 c -0.688,1.559 -1.66,2.828 -2.906,3.797 -1.243,0.965 -2.543,1.453 -3.907,1.453 -1.273,0 -2.289,-0.195 -3.047,-0.578 -0.656,-0.367 -1.207,-0.98 -1.64,-1.844 -0.438,-0.855 -0.656,-1.742 -0.656,-2.656 0,-0.793 0.132,-1.527 0.406,-2.203 0.277,-0.668 0.609,-1.215 0.984,-1.641 0.371,-0.418 0.867,-0.824 1.485,-1.218 0.621,-0.387 1.156,-0.676 1.593,-0.86 0.434,-0.187 0.977,-0.402 1.625,-0.64 0.914,-0.344 1.75,-0.7 2.5,-1.063 0.758,-0.367 1.555,-0.848 2.391,-1.437 0.84,-0.594 1.547,-1.231 2.109,-1.907 0.559,-0.679 1.032,-1.496 1.407,-2.453 0.371,-0.961 0.562,-2.004 0.562,-3.125 0,-2.855 -1.039,-5.164 -3.109,-6.922 -2.063,-1.75 -4.668,-2.625 -7.813,-2.625 -1.086,0 -2.144,0.082 -3.172,0.235 -1.023,0.148 -1.882,0.328 -2.578,0.547 -0.687,0.226 -1.301,0.453 -1.828,0.671 -0.523,0.215 -0.91,0.399 -1.156,0.547 l -0.36,0.25 -0.109,0.141 c 0.051,0.164 0.156,0.547 0.313,1.141 0.164,0.589 0.289,1.046 0.375,1.359 0.082,0.32 0.171,0.738 0.265,1.25 0.102,0.508 0.176,0.976 0.219,1.406 l 0.5,0.047 c 0.758,-1.48 1.926,-2.754 3.5,-3.812 1.57,-1.063 3.055,-1.594 4.453,-1.594 z"
                           inkscape:connector-curvature="0"
                           id="path110"
                           style="fill:#ffffff;fill-opacity:1;fill-rule:nonzero;stroke:none" /><path
                           d="m 75.004,200.906 -25.027,0 0,50.032 50.031,0 0,-50.032 -25.004,0 z"
                           inkscape:connector-curvature="0"
                           id="path112"
                           style="fill:#ffffff;fill-opacity:1;fill-rule:nonzero;stroke:none" /><path
                           d="m 72.844,231.957 c 0,3.895 -0.133,6.297 -0.391,7.203 -1.992,0 -3.832,-0.058 -5.515,-0.172 -1.68,-0.105 -2.864,-0.215 -3.547,-0.328 l -1.047,-0.172 -0.11,0.188 c 0.102,0.777 0.102,1.879 0,3.297 l 0.11,0.14 c 0.789,-0.093 1.789,-0.14 3,-0.14 l 19.281,0 c 1.207,0 2.207,0.047 3,0.14 l 0.109,-0.14 c -0.105,-1.418 -0.105,-2.52 0,-3.297 l -0.109,-0.188 c -2.293,0.446 -5.66,0.672 -10.094,0.672 -0.261,-0.906 -0.39,-3.308 -0.39,-7.203 l 0,-12.219 c 0,-4.168 0.164,-7.508 0.5,-10.015 l -0.11,-0.141 c -0.605,0.094 -1.457,0.141 -2.547,0.141 -1.093,0 -1.941,-0.047 -2.531,-0.141 l -0.125,0.141 c 0.34,2.371 0.516,5.711 0.516,10.015 l 0,12.219 z"
                           inkscape:connector-curvature="0"
                           id="path114"
                           style="fill:#000000;fill-opacity:1;fill-rule:nonzero;stroke:none" /><path
                           d="m 125.066,200.906 -25.031,0 0,50.032 50.031,0 0,-50.032 -25,0 z"
                           inkscape:connector-curvature="0"
                           id="path116"
                           style="fill:#000000;fill-opacity:1;fill-rule:nonzero;stroke:none" /><path
                           d="m 119.539,224.035 0,-4.297 c 0,-4.168 0.172,-7.508 0.516,-10.015 l -0.11,-0.141 c -0.617,0.094 -1.472,0.141 -2.562,0.141 -1.086,0 -1.93,-0.047 -2.531,-0.141 l -0.094,0.141 c 0.32,2.257 0.484,5.597 0.484,10.015 l 0,12.219 c 0,4.301 -0.164,7.641 -0.484,10.016 l 0.094,0.14 c 0.601,-0.093 1.445,-0.14 2.531,-0.14 0.519,0 1.679,0.054 3.484,0.172 1.801,0.113 2.895,0.171 3.281,0.171 1.332,0 2.454,-0.039 3.36,-0.109 0.914,-0.074 1.957,-0.301 3.125,-0.672 1.164,-0.375 2.125,-0.914 2.875,-1.609 1.746,-1.668 2.625,-3.754 2.625,-6.25 0,-1.93 -0.465,-3.571 -1.391,-4.922 -0.93,-1.356 -2.133,-2.402 -3.609,-3.141 -0.731,-0.375 -1.742,-0.695 -3.031,-0.953 0.777,-1.043 2.523,-3.527 5.234,-7.453 2.715,-3.93 4.539,-6.426 5.469,-7.484 l -0.11,-0.141 c -0.668,0.094 -1.668,0.141 -3,0.141 -1.367,0 -2.367,-0.047 -3,-0.141 -0.261,0.809 -0.879,2.109 -1.843,3.891 -0.969,1.777 -1.946,3.461 -2.922,5.047 -0.18,0.269 -0.481,0.753 -0.907,1.453 -0.418,0.695 -0.738,1.222 -0.953,1.578 -0.211,0.351 -0.496,0.781 -0.859,1.281 -0.367,0.508 -0.711,0.957 -1.031,1.344 -1.356,-0.094 -2.903,-0.141 -4.641,-0.141 z m 4.656,16.125 c -1.187,0 -2.07,-0.019 -2.64,-0.047 -0.563,-0.031 -1.02,-0.144 -1.36,-0.328 -0.343,-0.187 -0.543,-0.402 -0.593,-0.64 -0.043,-0.231 -0.063,-0.622 -0.063,-1.172 l 0,-11.938 2.906,0 c 1.02,0 1.946,0.063 2.782,0.188 0.839,0.132 1.648,0.375 2.421,0.718 0.778,0.352 1.43,0.813 1.954,1.375 0.527,0.559 0.953,1.289 1.265,2.188 0.309,0.894 0.469,1.937 0.469,3.125 0,1.039 -0.152,1.953 -0.453,2.734 -0.305,0.789 -0.695,1.422 -1.172,1.891 -0.469,0.476 -1.035,0.863 -1.688,1.156 -0.656,0.289 -1.293,0.488 -1.906,0.594 -0.617,0.101 -1.258,0.156 -1.922,0.156 z"
                           inkscape:connector-curvature="0"
                           id="path118"
                           style="fill:#ffffff;fill-opacity:1;fill-rule:nonzero;stroke:none" /><path
                           d="m 175.066,200.906 -25.027,0 0,50.032 50.031,0 0,-50.032 -25.004,0 z"
                           inkscape:connector-curvature="0"
                           id="path120"
                           style="fill:#ffffff;fill-opacity:1;fill-rule:nonzero;stroke:none" /><path
                           d="m 172.871,231.957 c 0,4.301 -0.164,7.641 -0.484,10.016 l 0.093,0.14 c 0.602,-0.093 1.446,-0.14 2.532,-0.14 1.09,0 1.945,0.047 2.562,0.14 l 0.11,-0.14 c -0.344,-2.325 -0.516,-5.664 -0.516,-10.016 l 0,-12.219 c 0,-4.168 0.172,-7.508 0.516,-10.015 l -0.11,-0.141 c -0.617,0.094 -1.472,0.141 -2.562,0.141 -1.086,0 -1.93,-0.047 -2.532,-0.141 l -0.093,0.141 c 0.32,2.257 0.484,5.597 0.484,10.015 l 0,12.219 z"
                           inkscape:connector-curvature="0"
                           id="path122"
                           style="fill:#000000;fill-opacity:1;fill-rule:nonzero;stroke:none" /><path
                           d="m 225.07,200.906 -25.031,0 0,50.032 50.035,0 0,-50.032 -25.004,0 z"
                           inkscape:connector-curvature="0"
                           id="path124"
                           style="fill:#000000;fill-opacity:1;fill-rule:nonzero;stroke:none" /><path
                           d="m 212.488,241.973 0.11,0.14 c 0.257,-0.093 0.957,-0.14 2.093,-0.14 l 0.704,0.093 17.14,-22.187 c 1.176,-1.512 1.879,-2.367 2.11,-2.563 0.402,-0.355 0.664,-0.242 0.781,0.344 0.027,0.227 0.051,0.551 0.062,0.969 l 0,13.328 c 0,4.301 -0.164,7.641 -0.484,10.016 l 0.094,0.14 c 0.601,-0.093 1.191,-0.14 1.765,-0.14 0.528,0 1.11,0.047 1.735,0.14 l 0.093,-0.14 c -0.199,-2.606 -0.355,-5.336 -0.468,-8.188 -0.118,-2.855 -0.2,-5.215 -0.25,-7.078 -0.043,-1.867 -0.098,-4.551 -0.157,-8.047 -0.054,-3.5 -0.097,-6.133 -0.125,-7.89 -0.054,-1.024 -0.371,-1.532 -0.953,-1.532 -0.843,0 -1.566,0.399 -2.156,1.188 l -17.422,22.047 c -0.344,0.433 -0.613,0.769 -0.797,1 -0.187,0.226 -0.367,0.398 -0.531,0.515 -0.156,0.114 -0.273,0.153 -0.344,0.125 -0.074,-0.023 -0.136,-0.148 -0.187,-0.375 -0.055,-0.218 -0.086,-0.48 -0.094,-0.781 0,-0.293 0,-0.723 0,-1.281 l 0,-11.938 c 0,-4.304 0.16,-7.644 0.484,-10.015 l -0.093,-0.141 c -0.625,0.094 -1.215,0.141 -1.766,0.141 -0.555,0 -1.133,-0.047 -1.734,-0.141 l -0.094,0.141 c 0.394,3.839 0.629,9.019 0.703,15.531 0.082,6.519 0.008,12.094 -0.219,16.719 z"
                           inkscape:connector-curvature="0"
                           id="path126"
                           style="fill:#ffffff;fill-opacity:1;fill-rule:nonzero;stroke:none" /><path
                           d="m 275.074,200.906 -25.031,0 0,50.032 50.031,0 0,-50.032 -25,0 z"
                           inkscape:connector-curvature="0"
                           id="path128"
                           style="fill:#ffffff;fill-opacity:1;fill-rule:nonzero;stroke:none" /><path
                           d="m 284.398,215.582 c 0,3.957 -0.164,7.125 -0.484,9.5 l 0.094,0.141 c 0.551,-0.094 1.394,-0.141 2.531,-0.141 0.52,0 0.992,0.008 1.422,0.031 0.434,0.028 0.742,0.063 0.922,0.094 l 0.281,0.016 0.047,-0.141 c -0.344,-2.336 -0.516,-5.168 -0.516,-8.5 l 0,-0.312 c 0,-1.18 0.172,-1.977 0.516,-2.391 l 0,-0.156 c -3.563,-2.993 -8.004,-4.485 -13.313,-4.485 -2.437,0 -4.691,0.446 -6.75,1.328 -2.062,0.883 -3.777,2.079 -5.14,3.579 -1.367,1.507 -2.43,3.25 -3.188,5.218 -0.75,1.965 -1.125,4.035 -1.125,6.203 0,2.133 0.328,4.129 0.985,5.985 0.652,1.851 1.547,3.445 2.672,4.781 1.132,1.332 2.445,2.477 3.937,3.438 1.488,0.964 3.07,1.687 4.75,2.156 1.676,0.465 3.379,0.703 5.109,0.703 1.801,0 3.657,-0.215 5.563,-0.641 1.902,-0.418 3.351,-0.84 4.344,-1.265 l 1.5,-0.61 0.093,-0.14 c -0.543,-1.887 -0.878,-3.825 -1,-5.813 l -0.593,-0.047 c -1.137,1.934 -2.633,3.469 -4.485,4.594 -1.855,1.133 -3.894,1.703 -6.109,1.703 -3.418,0 -6.211,-1.316 -8.375,-3.937 -2.168,-2.618 -3.25,-6.082 -3.25,-10.391 0,-1.367 0.133,-2.723 0.406,-4.062 0.27,-1.336 0.719,-2.649 1.344,-3.938 0.621,-1.293 1.391,-2.43 2.297,-3.406 0.914,-0.981 2.078,-1.77 3.484,-2.36 1.414,-0.593 2.977,-0.89 4.688,-0.89 3.558,0 6.007,0.629 7.343,1.89 l 0,2.266 z"
                           inkscape:connector-curvature="0"
                           id="path130"
                           style="fill:#000000;fill-opacity:1;fill-rule:nonzero;stroke:none" /><path
                           d="m 325.078,200.906 -25.031,0 0,50.032 50.031,0 0,-50.032 -25,0 z"
                           inkscape:connector-curvature="0"
                           id="path132"
                           style="fill:#000000;fill-opacity:1;fill-rule:nonzero;stroke:none" /><path
                           d="m 327.137,223.988 c 0.07,-7.75 0.187,-12.554 0.343,-14.406 -0.625,0.094 -1.46,0.141 -2.5,0.141 -1.042,0 -1.871,-0.047 -2.484,-0.141 0.227,2.57 0.344,7.203 0.344,13.891 -1.031,1.738 -2.981,4.922 -5.844,9.547 -2.867,4.632 -4.769,7.664 -5.703,9.093 0.852,-0.093 1.801,-0.14 2.844,-0.14 1.039,0 1.988,0.047 2.843,0.14 0.809,-1.574 1.649,-3.133 2.516,-4.672 0.871,-1.531 2.016,-3.503 3.422,-5.906 1.402,-2.398 2.348,-4.004 2.828,-4.812 3.684,5.769 6.598,10.898 8.734,15.39 0.602,-0.093 1.301,-0.14 2.094,-0.14 0.738,0 1.442,0.047 2.11,0.14 -1.043,-1.593 -2.368,-3.597 -3.969,-6 -1.594,-2.406 -2.738,-4.144 -3.422,-5.203 -0.688,-1.055 -1.434,-2.238 -2.234,-3.547 -0.793,-1.312 -1.434,-2.441 -1.922,-3.375 z"
                           inkscape:connector-curvature="0"
                           id="path134"
                           style="fill:#ffffff;fill-opacity:1;fill-rule:nonzero;stroke:none" /><path
                           d="m 25.059,150.961 -25.032,0 0,50.031 50.032,0 0,-50.031 -25,0 z"
                           inkscape:connector-curvature="0"
                           id="path136"
                           style="fill:#ffffff;fill-opacity:1;fill-rule:nonzero;stroke:none" /><path
                           d="m 24.496,161.477 c 1.582,0 2.945,0.523 4.094,1.578 1.152,1.05 1.734,2.472 1.734,4.265 0,1.02 -0.144,1.926 -0.422,2.719 -0.281,0.789 -0.714,1.461 -1.297,2.016 -0.574,0.55 -1.175,1.015 -1.796,1.39 -0.625,0.371 -1.399,0.75 -2.313,1.125 -0.961,0.403 -1.801,0.789 -2.516,1.157 -0.718,0.363 -1.488,0.832 -2.296,1.406 -0.813,0.582 -1.477,1.179 -1.985,1.797 -0.511,0.621 -0.945,1.375 -1.297,2.25 -0.355,0.882 -0.531,1.832 -0.531,2.843 0,1.739 0.531,3.305 1.594,4.704 1.058,1.402 2.375,2.441 3.937,3.109 1.34,0.559 2.774,0.844 4.297,0.844 1.082,0 2.098,-0.082 3.047,-0.235 0.957,-0.148 1.719,-0.336 2.281,-0.562 0.571,-0.219 1.067,-0.445 1.485,-0.672 0.414,-0.219 0.707,-0.414 0.875,-0.578 l 0.234,-0.219 0.109,-0.141 c -0.636,-2.168 -1.023,-3.839 -1.156,-5.015 l -0.484,-0.047 c -0.688,1.559 -1.66,2.828 -2.906,3.797 -1.243,0.965 -2.543,1.453 -3.907,1.453 -1.273,0 -2.289,-0.195 -3.047,-0.578 -0.656,-0.367 -1.207,-0.981 -1.64,-1.844 -0.438,-0.855 -0.656,-1.742 -0.656,-2.656 0,-0.793 0.132,-1.528 0.406,-2.203 0.277,-0.668 0.609,-1.215 0.984,-1.641 0.371,-0.418 0.867,-0.824 1.485,-1.219 0.621,-0.386 1.156,-0.675 1.593,-0.859 0.434,-0.188 0.977,-0.402 1.625,-0.641 0.914,-0.343 1.75,-0.699 2.5,-1.062 0.758,-0.367 1.555,-0.848 2.391,-1.438 0.84,-0.593 1.547,-1.23 2.109,-1.906 0.559,-0.68 1.032,-1.496 1.407,-2.453 0.371,-0.961 0.562,-2.004 0.562,-3.125 0,-2.856 -1.039,-5.164 -3.109,-6.922 -2.063,-1.75 -4.668,-2.625 -7.813,-2.625 -1.086,0 -2.144,0.082 -3.172,0.234 -1.023,0.149 -1.882,0.329 -2.578,0.547 -0.687,0.227 -1.301,0.453 -1.828,0.672 -0.523,0.215 -0.91,0.399 -1.156,0.547 l -0.36,0.25 -0.109,0.141 c 0.051,0.164 0.156,0.547 0.313,1.14 0.164,0.59 0.289,1.047 0.375,1.36 0.082,0.32 0.171,0.738 0.265,1.25 0.102,0.508 0.176,0.976 0.219,1.406 l 0.5,0.047 c 0.758,-1.481 1.926,-2.754 3.5,-3.813 1.57,-1.062 3.055,-1.593 4.453,-1.593 z"
                           inkscape:connector-curvature="0"
                           id="path138"
                           style="fill:#000000;fill-opacity:1;fill-rule:nonzero;stroke:none" /><path
                           d="m 75.004,150.961 -25.027,0 0,50.031 50.031,0 0,-50.031 -25.004,0 z"
                           inkscape:connector-curvature="0"
                           id="path140"
                           style="fill:#000000;fill-opacity:1;fill-rule:nonzero;stroke:none" /><path
                           d="m 71.039,169.789 c 0,-3.844 0.133,-6.246 0.406,-7.203 1.989,0 4.157,0.047 6.5,0.141 2.34,0.089 4.196,0.191 5.563,0.296 l 2.031,0.141 0.094,-0.187 c -0.063,-0.524 -0.094,-1.082 -0.094,-1.672 0,-0.075 0.031,-0.586 0.094,-1.532 l -0.094,-0.14 c -0.805,0.094 -1.805,0.14 -3,0.14 l -13.656,0 c -0.524,0 -0.996,-0.007 -1.422,-0.031 -0.43,-0.027 -0.727,-0.051 -0.891,-0.062 l -0.265,-0.047 -0.047,0.14 c 0.32,2.258 0.484,5.598 0.484,10.016 l 0,12.219 c 0,4.301 -0.164,7.64 -0.484,10.015 l 0.094,0.141 c 0.55,-0.094 1.394,-0.141 2.531,-0.141 l 13.172,0 c 1.195,0 2.195,0.047 3,0.141 l 0.093,-0.141 c -0.062,-0.949 -0.093,-1.585 -0.093,-1.906 0,-0.344 0.031,-0.777 0.093,-1.297 l -0.093,-0.187 c -4.625,0.383 -9.164,0.578 -13.61,0.578 -0.273,-0.969 -0.406,-3.371 -0.406,-7.203 l 0,-3.875 c 3.496,0 7.219,0.16 11.156,0.484 l 0.141,-0.14 c -0.094,-0.438 -0.141,-0.977 -0.141,-1.61 0,-0.625 0.047,-1.16 0.141,-1.594 l -0.141,-0.14 c -3.273,0.32 -6.992,0.484 -11.156,0.484 l 0,-5.828 z"
                           inkscape:connector-curvature="0"
                           id="path142"
                           style="fill:#ffffff;fill-opacity:1;fill-rule:nonzero;stroke:none" /><path
                           d="m 125.066,150.961 -25.031,0 0,50.031 50.031,0 0,-50.031 -25,0 z"
                           inkscape:connector-curvature="0"
                           id="path144"
                           style="fill:#ffffff;fill-opacity:1;fill-rule:nonzero;stroke:none" /><path
                           d="m 122.871,182.008 c 0,4.301 -0.164,7.64 -0.484,10.015 l 0.093,0.141 c 0.602,-0.094 1.446,-0.141 2.532,-0.141 1.09,0 1.945,0.047 2.562,0.141 l 0.11,-0.141 c -0.344,-2.324 -0.516,-5.664 -0.516,-10.015 l 0,-12.219 c 0,-4.168 0.172,-7.508 0.516,-10.016 l -0.11,-0.14 c -0.617,0.094 -1.472,0.14 -2.562,0.14 -1.086,0 -1.93,-0.046 -2.532,-0.14 l -0.093,0.14 c 0.32,2.258 0.484,5.598 0.484,10.016 l 0,12.219 z"
                           inkscape:connector-curvature="0"
                           id="path146"
                           style="fill:#000000;fill-opacity:1;fill-rule:nonzero;stroke:none" /><path
                           d="m 175.066,150.961 -25.027,0 0,50.031 50.031,0 0,-50.031 -25.004,0 z"
                           inkscape:connector-curvature="0"
                           id="path148"
                           style="fill:#000000;fill-opacity:1;fill-rule:nonzero;stroke:none" /><path
                           d="m 168.848,162.477 c 1.933,0 4.488,0.082 7.656,0.25 3.164,0.175 5.848,0.351 8.047,0.531 l 3.297,0.281 0.093,-0.172 c -0.062,-0.523 -0.093,-1.07 -0.093,-1.64 0,-0.356 0.031,-1.008 0.093,-1.954 l -0.093,-0.14 c -0.793,0.094 -1.973,0.14 -3.532,0.14 l -18.171,0 -4.344,-0.14 -0.141,0.187 c 0.207,0.278 0.461,0.641 0.766,1.078 0.301,0.434 0.472,0.696 0.515,0.782 l 18.469,27.047 c 0.113,0.195 0.149,0.343 0.11,0.437 -0.043,0.102 -0.133,0.156 -0.266,0.156 -3.656,0 -9.574,-0.355 -17.75,-1.062 l -0.094,0.172 c 0.059,0.519 0.094,1.066 0.094,1.64 0,0.352 -0.035,1.004 -0.094,1.953 l 0.094,0.141 c 0.808,-0.094 1.832,-0.141 3.062,-0.141 l 15.172,0 c 0.801,0 1.953,0.032 3.453,0.094 1.497,0.071 2.454,0.141 2.86,0.203 0.207,0 0.312,-0.101 0.312,-0.297 0,-0.406 -0.508,-1.308 -1.515,-2.703 l -17.75,-25.953 c -0.168,-0.23 -0.25,-0.527 -0.25,-0.89 z"
                           inkscape:connector-curvature="0"
                           id="path150"
                           style="fill:#ffffff;fill-opacity:1;fill-rule:nonzero;stroke:none" /><path
                           d="m 225.07,150.961 -25.031,0 0,50.031 50.035,0 0,-50.031 -25.004,0 z"
                           inkscape:connector-curvature="0"
                           id="path152"
                           style="fill:#ffffff;fill-opacity:1;fill-rule:nonzero;stroke:none" /><path
                           d="m 234.926,182.008 c 0,4.301 -0.168,7.64 -0.5,10.015 l 0.109,0.141 c 0.613,-0.094 1.192,-0.141 1.735,-0.141 0.558,0 1.144,0.047 1.75,0.141 l 0.093,-0.141 c -0.324,-2.211 -0.484,-5.55 -0.484,-10.015 l 0,-7.485 c 0,-1.875 -0.129,-3.554 -0.375,-5.031 -0.242,-1.48 -0.668,-2.871 -1.281,-4.172 -0.606,-1.304 -1.399,-2.386 -2.375,-3.25 -0.969,-0.867 -2.223,-1.55 -3.75,-2.047 -1.524,-0.488 -3.286,-0.734 -5.282,-0.734 -1.011,0 -1.996,0.098 -2.953,0.281 -0.961,0.188 -1.98,0.555 -3.062,1.11 -1.086,0.55 -2.035,1.258 -2.844,2.125 -0.805,0.871 -1.473,2.062 -2,3.562 -0.523,1.508 -0.781,3.242 -0.781,5.203 l 0,10.438 c 0,4.301 -0.164,7.64 -0.485,10.015 l 0.094,0.141 c 0.602,-0.094 1.445,-0.141 2.531,-0.141 1.09,0 1.946,0.047 2.563,0.141 l 0.109,-0.141 c -0.343,-2.324 -0.515,-5.664 -0.515,-10.015 l 0,-8.781 c 0,-0.461 0,-0.832 0,-1.11 0.007,-0.281 0.039,-0.742 0.093,-1.375 0.051,-0.625 0.118,-1.168 0.204,-1.625 0.089,-0.449 0.234,-0.996 0.421,-1.64 0.196,-0.649 0.43,-1.207 0.704,-1.672 0.269,-0.461 0.625,-0.942 1.062,-1.438 0.434,-0.492 0.926,-0.898 1.469,-1.219 0.539,-0.312 1.187,-0.574 1.937,-0.781 0.758,-0.199 1.594,-0.297 2.5,-0.297 1.176,0 2.235,0.114 3.172,0.344 0.945,0.238 1.738,0.551 2.375,0.938 0.633,0.394 1.188,0.894 1.656,1.5 0.477,0.613 0.848,1.226 1.11,1.843 0.258,0.621 0.461,1.352 0.609,2.188 0.153,0.84 0.258,1.617 0.313,2.328 0.05,0.707 0.078,1.508 0.078,2.406 l 0,8.391 z"
                           inkscape:connector-curvature="0"
                           id="path154"
                           style="fill:#000000;fill-opacity:1;fill-rule:nonzero;stroke:none" /><path
                           d="m 275.074,150.961 -25.031,0 0,50.031 50.031,0 0,-50.031 -25,0 z"
                           inkscape:connector-curvature="0"
                           id="path156"
                           style="fill:#000000;fill-opacity:1;fill-rule:nonzero;stroke:none" /><path
                           d="m 269.551,174.086 0,-4.297 c 0,-4.168 0.172,-7.508 0.515,-10.016 l -0.109,-0.14 c -0.617,0.094 -1.473,0.14 -2.562,0.14 -1.086,0 -1.93,-0.046 -2.532,-0.14 l -0.093,0.14 c 0.32,2.258 0.484,5.598 0.484,10.016 l 0,12.219 c 0,4.301 -0.164,7.64 -0.484,10.015 l 0.093,0.141 c 0.602,-0.094 1.446,-0.141 2.532,-0.141 0.519,0 1.679,0.055 3.484,0.172 1.801,0.114 2.894,0.172 3.281,0.172 1.332,0 2.453,-0.039 3.36,-0.109 0.914,-0.074 1.957,-0.301 3.125,-0.672 1.164,-0.375 2.125,-0.914 2.875,-1.609 1.746,-1.668 2.625,-3.754 2.625,-6.25 0,-1.93 -0.465,-3.571 -1.391,-4.922 -0.93,-1.356 -2.133,-2.403 -3.609,-3.141 -0.731,-0.375 -1.743,-0.695 -3.032,-0.953 0.778,-1.043 2.524,-3.527 5.235,-7.453 2.714,-3.93 4.539,-6.426 5.468,-7.485 l -0.109,-0.14 c -0.668,0.094 -1.668,0.14 -3,0.14 -1.367,0 -2.367,-0.046 -3,-0.14 -0.262,0.808 -0.879,2.109 -1.844,3.89 -0.968,1.778 -1.945,3.461 -2.922,5.047 -0.179,0.27 -0.48,0.754 -0.906,1.453 -0.418,0.696 -0.738,1.223 -0.953,1.579 -0.211,0.351 -0.496,0.781 -0.859,1.281 -0.368,0.508 -0.711,0.957 -1.032,1.344 -1.355,-0.094 -2.902,-0.141 -4.64,-0.141 z m 4.656,16.125 c -1.187,0 -2.07,-0.02 -2.641,-0.047 -0.562,-0.031 -1.019,-0.144 -1.359,-0.328 -0.344,-0.188 -0.543,-0.402 -0.594,-0.641 -0.043,-0.23 -0.062,-0.621 -0.062,-1.172 l 0,-11.937 2.906,0 c 1.02,0 1.945,0.062 2.781,0.187 0.84,0.133 1.649,0.375 2.422,0.719 0.778,0.352 1.43,0.813 1.953,1.375 0.528,0.559 0.953,1.289 1.266,2.188 0.309,0.894 0.469,1.937 0.469,3.125 0,1.039 -0.153,1.953 -0.453,2.734 -0.305,0.789 -0.696,1.422 -1.172,1.891 -0.469,0.476 -1.035,0.863 -1.688,1.156 -0.656,0.289 -1.293,0.488 -1.906,0.594 -0.617,0.101 -1.258,0.156 -1.922,0.156 z"
                           inkscape:connector-curvature="0"
                           id="path158"
                           style="fill:#ffffff;fill-opacity:1;fill-rule:nonzero;stroke:none" /><path
                           d="m 325.078,150.961 -25.031,0 0,50.031 50.031,0 0,-50.031 -25,0 z"
                           inkscape:connector-curvature="0"
                           id="path160"
                           style="fill:#ffffff;fill-opacity:1;fill-rule:nonzero;stroke:none" /><path
                           d="m 321.113,169.789 c 0,-3.844 0.133,-6.246 0.407,-7.203 1.988,0 4.156,0.047 6.5,0.141 2.339,0.089 4.195,0.191 5.562,0.296 l 2.031,0.141 0.094,-0.187 c -0.062,-0.524 -0.094,-1.082 -0.094,-1.672 0,-0.075 0.032,-0.586 0.094,-1.532 l -0.094,-0.14 c -0.804,0.094 -1.804,0.14 -3,0.14 l -13.656,0 c -0.523,0 -0.996,-0.007 -1.422,-0.031 -0.43,-0.027 -0.726,-0.051 -0.89,-0.062 l -0.266,-0.047 -0.047,0.14 c 0.32,2.258 0.484,5.598 0.484,10.016 l 0,12.219 c 0,4.301 -0.164,7.64 -0.484,10.015 l 0.094,0.141 c 0.551,-0.094 1.394,-0.141 2.531,-0.141 l 13.172,0 c 1.195,0 2.195,0.047 3,0.141 l 0.094,-0.141 c -0.063,-0.949 -0.094,-1.585 -0.094,-1.906 0,-0.344 0.031,-0.777 0.094,-1.297 l -0.094,-0.187 c -4.625,0.383 -9.164,0.578 -13.609,0.578 -0.274,-0.969 -0.407,-3.371 -0.407,-7.203 l 0,-3.875 c 3.496,0 7.219,0.16 11.157,0.484 l 0.14,-0.14 c -0.094,-0.438 -0.14,-0.977 -0.14,-1.61 0,-0.625 0.046,-1.16 0.14,-1.594 l -0.14,-0.14 c -3.274,0.32 -6.993,0.484 -11.157,0.484 l 0,-5.828 z"
                           inkscape:connector-curvature="0"
                           id="path162"
                           style="fill:#000000;fill-opacity:1;fill-rule:nonzero;stroke:none" /><path
                           d="m 25.059,100.898 -25.032,0 0,50.032 50.032,0 0,-50.032 -25,0 z"
                           inkscape:connector-curvature="0"
                           id="path164"
                           style="fill:#000000;fill-opacity:1;fill-rule:nonzero;stroke:none" /><path
                           d="m 29.684,123.48 c -1.575,4.122 -3.258,8.235 -5.047,12.329 l -0.11,0 -5.265,-12.297 c 2.195,-0.106 3.937,-0.157 5.218,-0.157 1.633,0 3.368,0.04 5.204,0.125 z m -11.407,-2.343 c -2.011,-4.961 -3.394,-8.817 -4.14,-11.563 -0.407,0.094 -1.164,0.141 -2.266,0.141 -0.75,0 -1.332,-0.047 -1.734,-0.141 5.496,12.051 10.41,23.067 14.734,33.047 l 1.391,0 c 1.121,-2.687 2.734,-6.629 4.828,-11.812 2.09,-5.18 3.91,-9.645 5.453,-13.391 1.551,-3.75 2.691,-6.367 3.422,-7.844 -0.574,0.094 -1.57,0.141 -2.985,0.141 -1.105,0 -1.945,-0.047 -2.515,-0.141 -0.731,2.727 -2.024,6.582 -3.875,11.563 -1.356,0.082 -3.309,0.125 -5.86,0.125 -2.918,0 -5.07,-0.043 -6.453,-0.125 z"
                           inkscape:connector-curvature="0"
                           id="path166"
                           style="fill:#ffffff;fill-opacity:1;fill-rule:nonzero;stroke:none" /><path
                           d="m 75.004,100.898 -25.027,0 0,50.032 50.031,0 0,-50.032 -25.004,0 z"
                           inkscape:connector-curvature="0"
                           id="path168"
                           style="fill:#ffffff;fill-opacity:1;fill-rule:nonzero;stroke:none" /><path
                           d="m 62.422,141.965 0.109,0.14 c 0.258,-0.093 0.957,-0.14 2.094,-0.14 l 0.703,0.094 17.141,-22.188 c 1.176,-1.512 1.879,-2.367 2.109,-2.562 0.402,-0.356 0.664,-0.243 0.781,0.343 0.028,0.227 0.051,0.551 0.063,0.969 l 0,13.328 c 0,4.301 -0.164,7.641 -0.484,10.016 l 0.093,0.14 c 0.602,-0.093 1.192,-0.14 1.766,-0.14 0.527,0 1.109,0.047 1.734,0.14 l 0.094,-0.14 c -0.199,-2.606 -0.355,-5.336 -0.469,-8.188 -0.117,-2.855 -0.199,-5.215 -0.25,-7.078 -0.043,-1.867 -0.097,-4.551 -0.156,-8.047 -0.055,-3.5 -0.098,-6.132 -0.125,-7.89 -0.055,-1.024 -0.371,-1.532 -0.953,-1.532 -0.844,0 -1.567,0.399 -2.156,1.188 l -17.422,22.047 c -0.344,0.433 -0.614,0.769 -0.797,1 -0.188,0.226 -0.367,0.398 -0.531,0.515 -0.157,0.114 -0.274,0.153 -0.344,0.125 -0.074,-0.023 -0.137,-0.148 -0.188,-0.375 -0.054,-0.218 -0.086,-0.48 -0.093,-0.781 0,-0.293 0,-0.722 0,-1.281 l 0,-11.938 c 0,-4.304 0.16,-7.644 0.484,-10.015 l -0.094,-0.141 c -0.625,0.094 -1.215,0.141 -1.765,0.141 -0.555,0 -1.133,-0.047 -1.735,-0.141 l -0.093,0.141 c 0.394,3.84 0.628,9.019 0.703,15.531 0.082,6.52 0.007,12.094 -0.219,16.719 z"
                           inkscape:connector-curvature="0"
                           id="path170"
                           style="fill:#000000;fill-opacity:1;fill-rule:nonzero;stroke:none" /><path
                           d="m 125.066,100.898 -25.031,0 0,50.032 50.031,0 0,-50.032 -25,0 z"
                           inkscape:connector-curvature="0"
                           id="path172"
                           style="fill:#000000;fill-opacity:1;fill-rule:nonzero;stroke:none" /><path
                           d="m 112.484,141.965 0.11,0.14 c 0.258,-0.093 0.957,-0.14 2.094,-0.14 l 0.703,0.094 17.14,-22.188 c 1.176,-1.512 1.879,-2.367 2.11,-2.562 0.402,-0.356 0.664,-0.243 0.781,0.343 0.027,0.227 0.051,0.551 0.062,0.969 l 0,13.328 c 0,4.301 -0.164,7.641 -0.484,10.016 l 0.094,0.14 c 0.601,-0.093 1.191,-0.14 1.765,-0.14 0.528,0 1.11,0.047 1.735,0.14 l 0.094,-0.14 c -0.2,-2.606 -0.356,-5.336 -0.469,-8.188 -0.117,-2.855 -0.199,-5.215 -0.25,-7.078 -0.043,-1.867 -0.098,-4.551 -0.157,-8.047 -0.054,-3.5 -0.097,-6.132 -0.124,-7.89 -0.055,-1.024 -0.372,-1.532 -0.954,-1.532 -0.843,0 -1.566,0.399 -2.156,1.188 l -17.422,22.047 c -0.344,0.433 -0.613,0.769 -0.797,1 -0.187,0.226 -0.367,0.398 -0.531,0.515 -0.156,0.114 -0.273,0.153 -0.344,0.125 -0.074,-0.023 -0.136,-0.148 -0.187,-0.375 -0.055,-0.218 -0.086,-0.48 -0.094,-0.781 0,-0.293 0,-0.722 0,-1.281 l 0,-11.938 c 0,-4.304 0.16,-7.644 0.485,-10.015 l -0.094,-0.141 c -0.625,0.094 -1.215,0.141 -1.766,0.141 -0.555,0 -1.133,-0.047 -1.734,-0.141 L 112,109.715 c 0.395,3.84 0.629,9.019 0.703,15.531 0.082,6.52 0.008,12.094 -0.219,16.719 z"
                           inkscape:connector-curvature="0"
                           id="path174"
                           style="fill:#ffffff;fill-opacity:1;fill-rule:nonzero;stroke:none" /><path
                           d="m 175.066,100.898 -25.027,0 0,50.032 50.031,0 0,-50.032 -25.004,0 z"
                           inkscape:connector-curvature="0"
                           id="path176"
                           style="fill:#ffffff;fill-opacity:1;fill-rule:nonzero;stroke:none" /><path
                           d="m 184.922,131.949 c 0,4.301 -0.168,7.641 -0.5,10.016 l 0.109,0.14 c 0.614,-0.093 1.192,-0.14 1.735,-0.14 0.558,0 1.144,0.047 1.75,0.14 l 0.093,-0.14 c -0.324,-2.211 -0.484,-5.551 -0.484,-10.016 l 0,-7.484 c 0,-1.875 -0.129,-3.555 -0.375,-5.031 -0.242,-1.481 -0.668,-2.872 -1.281,-4.172 -0.606,-1.305 -1.399,-2.387 -2.375,-3.25 -0.969,-0.867 -2.223,-1.551 -3.75,-2.047 -1.524,-0.488 -3.285,-0.735 -5.282,-0.735 -1.011,0 -1.996,0.098 -2.953,0.282 -0.961,0.187 -1.98,0.554 -3.062,1.109 -1.086,0.551 -2.035,1.258 -2.844,2.125 -0.805,0.871 -1.473,2.063 -2,3.563 -0.523,1.507 -0.781,3.242 -0.781,5.203 l 0,10.437 c 0,4.301 -0.164,7.641 -0.484,10.016 l 0.093,0.14 c 0.602,-0.093 1.446,-0.14 2.531,-0.14 1.09,0 1.946,0.047 2.563,0.14 l 0.109,-0.14 c -0.343,-2.324 -0.515,-5.664 -0.515,-10.016 l 0,-8.781 c 0,-0.461 0,-0.832 0,-1.109 0.008,-0.282 0.039,-0.743 0.093,-1.375 0.051,-0.625 0.118,-1.168 0.204,-1.625 0.089,-0.45 0.234,-0.997 0.422,-1.641 0.195,-0.648 0.429,-1.207 0.703,-1.672 0.269,-0.461 0.625,-0.941 1.062,-1.437 0.434,-0.493 0.926,-0.899 1.469,-1.219 0.539,-0.313 1.187,-0.574 1.937,-0.781 0.758,-0.2 1.594,-0.297 2.5,-0.297 1.176,0 2.235,0.113 3.172,0.343 0.946,0.239 1.739,0.551 2.375,0.938 0.633,0.395 1.188,0.895 1.656,1.5 0.477,0.613 0.848,1.227 1.11,1.844 0.258,0.621 0.461,1.351 0.609,2.187 0.153,0.84 0.258,1.617 0.313,2.328 0.051,0.707 0.078,1.508 0.078,2.407 l 0,8.39 z"
                           inkscape:connector-curvature="0"
                           id="path178"
                           style="fill:#000000;fill-opacity:1;fill-rule:nonzero;stroke:none" /><path
                           d="m 225.07,100.898 -25.031,0 0,50.032 50.035,0 0,-50.032 -25.004,0 z"
                           inkscape:connector-curvature="0"
                           id="path180"
                           style="fill:#000000;fill-opacity:1;fill-rule:nonzero;stroke:none" /><path
                           d="m 221.691,131.949 0,-12.219 c 0,-3.679 0.141,-6.003 0.422,-6.968 1.977,0 4.141,0.093 6.485,0.281 2.34,0.184 4.195,0.367 5.562,0.547 l 2.031,0.281 0.094,-0.203 c -0.062,-0.523 -0.094,-1.106 -0.094,-1.75 0,-0.523 0.032,-1.258 0.094,-2.203 l -0.094,-0.141 c -0.793,0.094 -1.793,0.141 -3,0.141 l -13.656,0 c -0.5,0 -0.973,-0.008 -1.406,-0.031 -0.43,-0.028 -0.731,-0.051 -0.906,-0.063 l -0.266,-0.047 -0.047,0.141 c 0.32,2.258 0.485,5.597 0.485,10.015 l 0,12.219 c 0,4.301 -0.165,7.641 -0.485,10.016 l 0.094,0.14 c 0.601,-0.093 1.445,-0.14 2.531,-0.14 1.121,0 2,0.047 2.625,0.14 l 0.047,-0.14 c -0.344,-2.324 -0.516,-5.664 -0.516,-10.016 z"
                           inkscape:connector-curvature="0"
                           id="path182"
                           style="fill:#ffffff;fill-opacity:1;fill-rule:nonzero;stroke:none" /><path
                           d="m 275.074,100.898 -25.031,0 0,50.032 50.031,0 0,-50.032 -25,0 z"
                           inkscape:connector-curvature="0"
                           id="path184"
                           style="fill:#ffffff;fill-opacity:1;fill-rule:nonzero;stroke:none" /><path
                           d="m 279.699,123.48 c -1.574,4.122 -3.258,8.235 -5.047,12.329 l -0.109,0 -5.266,-12.297 c 2.196,-0.106 3.938,-0.157 5.219,-0.157 1.633,0 3.367,0.04 5.203,0.125 z m -11.406,-2.343 c -2.012,-4.961 -3.395,-8.817 -4.141,-11.563 -0.406,0.094 -1.164,0.141 -2.265,0.141 -0.75,0 -1.332,-0.047 -1.735,-0.141 5.496,12.051 10.41,23.067 14.735,33.047 l 1.39,0 c 1.121,-2.687 2.735,-6.629 4.828,-11.812 2.09,-5.18 3.911,-9.645 5.454,-13.391 1.55,-3.75 2.691,-6.367 3.421,-7.844 -0.574,0.094 -1.57,0.141 -2.984,0.141 -1.105,0 -1.945,-0.047 -2.516,-0.141 -0.73,2.727 -2.023,6.582 -3.875,11.563 -1.355,0.082 -3.308,0.125 -5.859,0.125 -2.918,0 -5.07,-0.043 -6.453,-0.125 z"
                           inkscape:connector-curvature="0"
                           id="path186"
                           style="fill:#000000;fill-opacity:1;fill-rule:nonzero;stroke:none" /><path
                           d="m 325.078,100.898 -25.031,0 0,50.032 50.031,0 0,-50.032 -25,0 z"
                           inkscape:connector-curvature="0"
                           id="path188"
                           style="fill:#000000;fill-opacity:1;fill-rule:nonzero;stroke:none" /><path
                           d="m 319.555,124.027 0,-4.297 c 0,-4.168 0.172,-7.507 0.515,-10.015 l -0.109,-0.141 c -0.617,0.094 -1.473,0.141 -2.563,0.141 -1.086,0 -1.929,-0.047 -2.531,-0.141 l -0.094,0.141 c 0.321,2.258 0.485,5.597 0.485,10.015 l 0,12.219 c 0,4.301 -0.164,7.641 -0.485,10.016 l 0.094,0.14 c 0.602,-0.093 1.445,-0.14 2.531,-0.14 0.52,0 1.68,0.055 3.485,0.172 1.801,0.113 2.894,0.172 3.281,0.172 1.332,0 2.453,-0.039 3.359,-0.11 0.915,-0.074 1.957,-0.301 3.125,-0.672 1.164,-0.375 2.125,-0.914 2.875,-1.609 1.747,-1.668 2.625,-3.754 2.625,-6.25 0,-1.93 -0.464,-3.57 -1.39,-4.922 -0.93,-1.355 -2.133,-2.402 -3.61,-3.141 -0.73,-0.375 -1.742,-0.695 -3.031,-0.953 0.778,-1.043 2.524,-3.527 5.235,-7.453 2.714,-3.929 4.539,-6.426 5.468,-7.484 l -0.109,-0.141 c -0.668,0.094 -1.668,0.141 -3,0.141 -1.367,0 -2.367,-0.047 -3,-0.141 -0.262,0.809 -0.879,2.11 -1.844,3.891 -0.969,1.777 -1.945,3.461 -2.922,5.047 -0.179,0.269 -0.48,0.754 -0.906,1.453 -0.418,0.695 -0.738,1.223 -0.953,1.578 -0.211,0.352 -0.496,0.781 -0.859,1.281 -0.368,0.508 -0.711,0.957 -1.032,1.344 -1.355,-0.094 -2.902,-0.141 -4.64,-0.141 z m 4.656,16.125 c -1.188,0 -2.07,-0.019 -2.641,-0.047 -0.562,-0.031 -1.019,-0.144 -1.359,-0.328 -0.344,-0.187 -0.543,-0.402 -0.594,-0.64 -0.043,-0.231 -0.062,-0.621 -0.062,-1.172 l 0,-11.938 2.906,0 c 1.019,0 1.945,0.063 2.781,0.188 0.84,0.133 1.649,0.375 2.422,0.719 0.777,0.351 1.43,0.812 1.953,1.375 0.528,0.558 0.953,1.289 1.266,2.187 0.308,0.895 0.469,1.938 0.469,3.125 0,1.039 -0.153,1.953 -0.454,2.734 -0.304,0.79 -0.695,1.422 -1.171,1.891 -0.469,0.477 -1.036,0.863 -1.688,1.156 -0.656,0.289 -1.293,0.489 -1.906,0.594 -0.617,0.102 -1.258,0.156 -1.922,0.156 z"
                           inkscape:connector-curvature="0"
                           id="path190"
                           style="fill:#ffffff;fill-opacity:1;fill-rule:nonzero;stroke:none" /><path
                           d="m 25.059,50.895 -25.032,0 0,50.031 50.032,0 0,-50.031 -25,0 z"
                           inkscape:connector-curvature="0"
                           id="path192"
                           style="fill:#ffffff;fill-opacity:1;fill-rule:nonzero;stroke:none" /><path
                           d="m 22.863,81.945 c 0,4.301 -0.164,7.641 -0.484,10.016 l 0.094,0.141 c 0.601,-0.094 1.445,-0.141 2.531,-0.141 1.09,0 1.945,0.047 2.562,0.141 l 0.11,-0.141 C 27.332,89.637 27.16,86.297 27.16,81.945 l 0,-12.218 c 0,-4.168 0.172,-7.508 0.516,-10.016 l -0.11,-0.141 c -0.617,0.094 -1.472,0.141 -2.562,0.141 -1.086,0 -1.93,-0.047 -2.531,-0.141 l -0.094,0.141 c 0.32,2.258 0.484,5.598 0.484,10.016 l 0,12.218 z"
                           inkscape:connector-curvature="0"
                           id="path194"
                           style="fill:#000000;fill-opacity:1;fill-rule:nonzero;stroke:none" /><path
                           d="m 75.004,50.895 -25.027,0 0,50.031 50.031,0 0,-50.031 -25.004,0 z"
                           inkscape:connector-curvature="0"
                           id="path196"
                           style="fill:#000000;fill-opacity:1;fill-rule:nonzero;stroke:none" /><path
                           d="m 62.422,91.961 0.109,0.141 c 0.258,-0.094 0.957,-0.141 2.094,-0.141 l 0.703,0.094 17.141,-22.188 c 1.176,-1.512 1.879,-2.367 2.109,-2.562 0.402,-0.356 0.664,-0.243 0.781,0.343 0.028,0.227 0.051,0.551 0.063,0.969 l 0,13.328 c 0,4.301 -0.164,7.641 -0.484,10.016 l 0.093,0.141 c 0.602,-0.094 1.192,-0.141 1.766,-0.141 0.527,0 1.109,0.047 1.734,0.141 l 0.094,-0.141 c -0.199,-2.606 -0.355,-5.336 -0.469,-8.188 -0.117,-2.855 -0.199,-5.214 -0.25,-7.078 -0.043,-1.867 -0.097,-4.55 -0.156,-8.047 -0.055,-3.5 -0.098,-6.132 -0.125,-7.89 -0.055,-1.024 -0.371,-1.531 -0.953,-1.531 -0.844,0 -1.567,0.398 -2.156,1.187 L 67.094,82.461 c -0.344,0.434 -0.614,0.769 -0.797,1 -0.188,0.227 -0.367,0.398 -0.531,0.516 -0.157,0.113 -0.274,0.152 -0.344,0.125 -0.074,-0.024 -0.137,-0.149 -0.188,-0.375 -0.054,-0.219 -0.086,-0.481 -0.093,-0.782 0,-0.293 0,-0.722 0,-1.281 l 0,-11.937 c 0,-4.305 0.16,-7.645 0.484,-10.016 L 65.531,59.57 c -0.625,0.094 -1.215,0.141 -1.765,0.141 -0.555,0 -1.133,-0.047 -1.735,-0.141 l -0.093,0.141 c 0.394,3.84 0.628,9.019 0.703,15.531 0.082,6.52 0.007,12.094 -0.219,16.719 z"
                           inkscape:connector-curvature="0"
                           id="path198"
                           style="fill:#ffffff;fill-opacity:1;fill-rule:nonzero;stroke:none" /><path
                           d="m 125.066,50.895 -25.031,0 0,50.031 50.031,0 0,-50.031 -25,0 z"
                           inkscape:connector-curvature="0"
                           id="path200"
                           style="fill:#ffffff;fill-opacity:1;fill-rule:nonzero;stroke:none" /><path
                           d="m 134.391,65.57 c 0,3.957 -0.164,7.125 -0.485,9.5 L 134,75.211 c 0.551,-0.094 1.395,-0.141 2.531,-0.141 0.52,0 0.992,0.008 1.422,0.032 0.434,0.027 0.742,0.062 0.922,0.093 l 0.281,0.016 0.047,-0.141 c -0.344,-2.336 -0.515,-5.168 -0.515,-8.5 l 0,-0.312 c 0,-1.18 0.171,-1.977 0.515,-2.391 l 0,-0.156 c -3.562,-2.992 -8.004,-4.484 -13.312,-4.484 -2.438,0 -4.692,0.445 -6.75,1.328 -2.063,0.883 -3.778,2.078 -5.141,3.578 -1.367,1.508 -2.43,3.25 -3.188,5.219 -0.75,1.964 -1.124,4.035 -1.124,6.203 0,2.133 0.328,4.129 0.984,5.984 0.652,1.852 1.547,3.445 2.672,4.781 1.133,1.332 2.445,2.477 3.937,3.438 1.489,0.965 3.071,1.687 4.75,2.156 1.676,0.465 3.379,0.703 5.11,0.703 1.8,0 3.656,-0.215 5.562,-0.64 1.902,-0.418 3.352,-0.84 4.344,-1.266 l 1.5,-0.609 0.094,-0.141 c -0.543,-1.887 -0.879,-3.824 -1,-5.813 l -0.594,-0.046 c -1.137,1.933 -2.633,3.468 -4.485,4.593 -1.855,1.133 -3.894,1.703 -6.109,1.703 -3.418,0 -6.211,-1.316 -8.375,-3.937 -2.168,-2.617 -3.25,-6.082 -3.25,-10.391 0,-1.367 0.133,-2.722 0.406,-4.062 0.27,-1.336 0.719,-2.649 1.344,-3.938 0.621,-1.293 1.391,-2.429 2.297,-3.406 0.914,-0.98 2.078,-1.769 3.484,-2.359 1.414,-0.594 2.977,-0.891 4.688,-0.891 3.558,0 6.008,0.629 7.344,1.891 l 0,2.265 z"
                           inkscape:connector-curvature="0"
                           id="path202"
                           style="fill:#000000;fill-opacity:1;fill-rule:nonzero;stroke:none" /><path
                           d="m 175.066,50.895 -25.027,0 0,50.031 50.031,0 0,-50.031 -25.004,0 z"
                           inkscape:connector-curvature="0"
                           id="path204"
                           style="fill:#000000;fill-opacity:1;fill-rule:nonzero;stroke:none" /><path
                           d="m 169.543,74.023 0,-4.296 c 0,-4.168 0.172,-7.508 0.516,-10.016 l -0.11,-0.141 c -0.617,0.094 -1.472,0.141 -2.562,0.141 -1.086,0 -1.93,-0.047 -2.532,-0.141 l -0.093,0.141 c 0.32,2.258 0.484,5.598 0.484,10.016 l 0,12.218 c 0,4.301 -0.164,7.641 -0.484,10.016 l 0.093,0.141 c 0.602,-0.094 1.446,-0.141 2.532,-0.141 0.519,0 1.679,0.055 3.484,0.172 1.801,0.113 2.895,0.172 3.281,0.172 1.332,0 2.453,-0.039 3.36,-0.11 0.914,-0.074 1.957,-0.3 3.125,-0.672 1.164,-0.375 2.125,-0.914 2.875,-1.609 1.746,-1.668 2.625,-3.754 2.625,-6.25 0,-1.93 -0.465,-3.57 -1.391,-4.922 -0.93,-1.355 -2.133,-2.402 -3.609,-3.14 -0.731,-0.375 -1.742,-0.696 -3.032,-0.954 0.778,-1.043 2.524,-3.527 5.235,-7.453 2.715,-3.929 4.539,-6.425 5.469,-7.484 l -0.11,-0.141 c -0.668,0.094 -1.668,0.141 -3,0.141 -1.367,0 -2.367,-0.047 -3,-0.141 -0.261,0.809 -0.879,2.11 -1.844,3.891 -0.968,1.777 -1.945,3.461 -2.921,5.047 -0.18,0.269 -0.481,0.754 -0.907,1.453 -0.418,0.695 -0.738,1.223 -0.953,1.578 -0.211,0.352 -0.496,0.781 -0.859,1.281 -0.367,0.508 -0.711,0.957 -1.031,1.344 -1.356,-0.094 -2.903,-0.141 -4.641,-0.141 z m 4.656,16.125 c -1.187,0 -2.07,-0.019 -2.64,-0.046 -0.563,-0.032 -1.02,-0.145 -1.36,-0.329 -0.344,-0.187 -0.543,-0.402 -0.594,-0.64 -0.043,-0.231 -0.062,-0.621 -0.062,-1.172 l 0,-11.938 2.906,0 c 1.02,0 1.946,0.063 2.781,0.188 0.84,0.133 1.649,0.375 2.422,0.719 0.778,0.351 1.43,0.812 1.953,1.375 0.528,0.558 0.954,1.289 1.266,2.187 0.309,0.895 0.469,1.938 0.469,3.125 0,1.039 -0.152,1.953 -0.453,2.735 -0.305,0.789 -0.696,1.421 -1.172,1.89 -0.469,0.477 -1.035,0.863 -1.688,1.156 -0.656,0.29 -1.293,0.489 -1.906,0.594 -0.617,0.102 -1.258,0.156 -1.922,0.156 z"
                           inkscape:connector-curvature="0"
                           id="path206"
                           style="fill:#ffffff;fill-opacity:1;fill-rule:nonzero;stroke:none" /><path
                           d="m 225.07,50.895 -25.031,0 0,50.031 50.035,0 0,-50.031 -25.004,0 z"
                           inkscape:connector-curvature="0"
                           id="path208"
                           style="fill:#ffffff;fill-opacity:1;fill-rule:nonzero;stroke:none" /><path
                           d="m 229.699,73.477 c -1.574,4.121 -3.258,8.234 -5.047,12.328 l -0.109,0 -5.266,-12.297 c 2.196,-0.106 3.938,-0.156 5.219,-0.156 1.633,0 3.367,0.039 5.203,0.125 z m -11.406,-2.344 c -2.012,-4.961 -3.395,-8.817 -4.141,-11.563 -0.406,0.094 -1.164,0.141 -2.265,0.141 -0.75,0 -1.332,-0.047 -1.735,-0.141 5.496,12.051 10.41,23.067 14.735,33.047 l 1.39,0 c 1.121,-2.687 2.735,-6.629 4.828,-11.812 2.09,-5.18 3.911,-9.645 5.454,-13.391 1.55,-3.75 2.691,-6.367 3.421,-7.844 -0.574,0.094 -1.57,0.141 -2.984,0.141 -1.105,0 -1.945,-0.047 -2.516,-0.141 -0.73,2.727 -2.023,6.582 -3.875,11.563 -1.355,0.082 -3.308,0.125 -5.859,0.125 -2.918,0 -5.07,-0.043 -6.453,-0.125 z"
                           inkscape:connector-curvature="0"
                           id="path210"
                           style="fill:#000000;fill-opacity:1;fill-rule:nonzero;stroke:none" /><path
                           d="m 275.074,50.895 -25.031,0 0,50.031 50.031,0 0,-50.031 -25,0 z"
                           inkscape:connector-curvature="0"
                           id="path212"
                           style="fill:#000000;fill-opacity:1;fill-rule:nonzero;stroke:none" /><path
                           d="m 272.914,81.945 c 0,3.895 -0.133,6.297 -0.391,7.203 -1.992,0 -3.832,-0.058 -5.515,-0.171 -1.68,-0.106 -2.863,-0.215 -3.547,-0.329 l -1.047,-0.171 -0.109,0.187 c 0.101,0.777 0.101,1.879 0,3.297 l 0.109,0.141 c 0.789,-0.094 1.789,-0.141 3,-0.141 l 19.281,0 c 1.207,0 2.207,0.047 3,0.141 l 0.11,-0.141 c -0.106,-1.418 -0.106,-2.52 0,-3.297 l -0.11,-0.187 c -2.293,0.445 -5.66,0.671 -10.093,0.671 -0.262,-0.906 -0.391,-3.308 -0.391,-7.203 l 0,-12.218 c 0,-4.168 0.164,-7.508 0.5,-10.016 l -0.109,-0.141 c -0.606,0.094 -1.457,0.141 -2.547,0.141 -1.094,0 -1.942,-0.047 -2.532,-0.141 l -0.125,0.141 c 0.34,2.371 0.516,5.711 0.516,10.016 l 0,12.218 z"
                           inkscape:connector-curvature="0"
                           id="path214"
                           style="fill:#ffffff;fill-opacity:1;fill-rule:nonzero;stroke:none" /><path
                           d="m 325.078,50.895 -25.031,0 0,50.031 50.031,0 0,-50.031 -25,0 z"
                           inkscape:connector-curvature="0"
                           id="path216"
                           style="fill:#ffffff;fill-opacity:1;fill-rule:nonzero;stroke:none" /><path
                           d="m 321.113,69.727 c 0,-3.844 0.133,-6.247 0.407,-7.204 1.988,0 4.156,0.047 6.5,0.141 2.339,0.09 4.195,0.191 5.562,0.297 l 2.031,0.141 0.094,-0.188 c -0.062,-0.523 -0.094,-1.082 -0.094,-1.672 0,-0.074 0.032,-0.586 0.094,-1.531 l -0.094,-0.141 c -0.804,0.094 -1.804,0.141 -3,0.141 l -13.656,0 c -0.523,0 -0.996,-0.008 -1.422,-0.031 -0.43,-0.028 -0.726,-0.051 -0.89,-0.063 l -0.266,-0.047 -0.047,0.141 c 0.32,2.258 0.484,5.598 0.484,10.016 l 0,12.218 c 0,4.301 -0.164,7.641 -0.484,10.016 l 0.094,0.141 c 0.551,-0.094 1.394,-0.141 2.531,-0.141 l 13.172,0 c 1.195,0 2.195,0.047 3,0.141 l 0.094,-0.141 c -0.063,-0.949 -0.094,-1.586 -0.094,-1.906 0,-0.344 0.031,-0.778 0.094,-1.297 l -0.094,-0.188 c -4.625,0.383 -9.164,0.578 -13.609,0.578 -0.274,-0.968 -0.407,-3.371 -0.407,-7.203 l 0,-3.875 c 3.496,0 7.219,0.16 11.157,0.485 l 0.14,-0.141 c -0.094,-0.437 -0.14,-0.976 -0.14,-1.609 0,-0.625 0.046,-1.16 0.14,-1.594 l -0.14,-0.141 c -3.274,0.321 -6.993,0.485 -11.157,0.485 l 0,-5.828 z"
                           inkscape:connector-curvature="0"
                           id="path218"
                           style="fill:#000000;fill-opacity:1;fill-rule:nonzero;stroke:none" /><path
                           d="m 25.059,0.895 -25.032,0 0,50.031 50.032,0 0,-50.031 -25,0 z"
                           inkscape:connector-curvature="0"
                           id="path220"
                           style="fill:#000000;fill-opacity:1;fill-rule:nonzero;stroke:none" /><path
                           d="m 21.68,31.941 0,-12.218 c 0,-3.68 0.14,-6.004 0.422,-6.969 1.976,0 4.14,0.094 6.484,0.281 2.34,0.184 4.195,0.367 5.562,0.547 l 2.032,0.281 0.093,-0.203 c -0.062,-0.523 -0.093,-1.105 -0.093,-1.75 0,-0.523 0.031,-1.258 0.093,-2.203 L 36.18,9.566 c -0.793,0.094 -1.793,0.141 -3,0.141 l -13.657,0 c -0.5,0 -0.972,-0.008 -1.406,-0.031 C 17.688,9.648 17.387,9.625 17.211,9.613 L 16.945,9.566 16.898,9.707 c 0.321,2.258 0.485,5.598 0.485,10.016 l 0,12.218 c 0,4.301 -0.164,7.641 -0.485,10.016 l 0.094,0.141 c 0.602,-0.094 1.446,-0.141 2.531,-0.141 1.122,0 2,0.047 2.625,0.141 l 0.047,-0.141 C 21.852,39.633 21.68,36.293 21.68,31.941 z"
                           inkscape:connector-curvature="0"
                           id="path222"
                           style="fill:#ffffff;fill-opacity:1;fill-rule:nonzero;stroke:none" /><path
                           d="m 75.004,0.895 -25.027,0 0,50.031 50.031,0 0,-50.031 -25.004,0 z"
                           inkscape:connector-curvature="0"
                           id="path224"
                           style="fill:#ffffff;fill-opacity:1;fill-rule:nonzero;stroke:none" /><path
                           d="m 79.633,23.473 c -1.574,4.121 -3.258,8.234 -5.047,12.328 l -0.109,0 -5.266,-12.297 c 2.195,-0.106 3.937,-0.156 5.219,-0.156 1.632,0 3.367,0.039 5.203,0.125 z M 68.227,21.129 C 66.215,16.168 64.832,12.312 64.086,9.566 63.68,9.66 62.922,9.707 61.82,9.707 c -0.75,0 -1.332,-0.047 -1.734,-0.141 5.496,12.051 10.41,23.067 14.734,33.047 l 1.391,0 c 1.121,-2.687 2.734,-6.629 4.828,-11.812 2.09,-5.18 3.91,-9.645 5.453,-13.391 1.551,-3.75 2.692,-6.367 3.422,-7.844 -0.574,0.094 -1.57,0.141 -2.984,0.141 -1.106,0 -1.946,-0.047 -2.516,-0.141 -0.73,2.727 -2.023,6.582 -3.875,11.563 -1.355,0.082 -3.309,0.125 -5.859,0.125 -2.918,0 -5.071,-0.043 -6.453,-0.125 z"
                           inkscape:connector-curvature="0"
                           id="path226"
                           style="fill:#000000;fill-opacity:1;fill-rule:nonzero;stroke:none" /><path
                           d="m 125.066,0.895 -25.031,0 0,50.031 50.031,0 0,-50.031 -25,0 z"
                           inkscape:connector-curvature="0"
                           id="path228"
                           style="fill:#000000;fill-opacity:1;fill-rule:nonzero;stroke:none" /><path
                           d="m 127.121,23.973 c 0.07,-7.75 0.188,-12.555 0.344,-14.407 -0.625,0.094 -1.461,0.141 -2.5,0.141 -1.043,0 -1.871,-0.047 -2.485,-0.141 0.227,2.571 0.344,7.204 0.344,13.891 -1.031,1.738 -2.98,4.922 -5.844,9.547 -2.867,4.633 -4.769,7.664 -5.703,9.094 0.852,-0.094 1.801,-0.141 2.844,-0.141 1.039,0 1.988,0.047 2.844,0.141 0.808,-1.575 1.648,-3.133 2.515,-4.672 0.872,-1.531 2.016,-3.504 3.422,-5.906 1.403,-2.399 2.348,-4.004 2.828,-4.813 3.684,5.77 6.598,10.898 8.735,15.391 0.601,-0.094 1.301,-0.141 2.094,-0.141 0.738,0 1.441,0.047 2.109,0.141 -1.043,-1.594 -2.367,-3.598 -3.969,-6 -1.594,-2.407 -2.738,-4.145 -3.422,-5.203 -0.687,-1.055 -1.433,-2.239 -2.234,-3.547 -0.793,-1.313 -1.434,-2.442 -1.922,-3.375 z"
                           inkscape:connector-curvature="0"
                           id="path230"
                           style="fill:#ffffff;fill-opacity:1;fill-rule:nonzero;stroke:none" /><path
                           d="m 175.066,0.895 -25.027,0 0,50.031 50.031,0 0,-50.031 -25.004,0 z"
                           inkscape:connector-curvature="0"
                           id="path232"
                           style="fill:#ffffff;fill-opacity:1;fill-rule:nonzero;stroke:none" /><path
                           d="m 171.102,19.723 c 0,-3.844 0.132,-6.246 0.406,-7.203 1.988,0 4.156,0.046 6.5,0.14 2.34,0.09 4.195,0.192 5.562,0.297 l 2.032,0.141 0.093,-0.188 c -0.062,-0.523 -0.093,-1.082 -0.093,-1.672 0,-0.074 0.031,-0.586 0.093,-1.531 l -0.093,-0.141 c -0.805,0.094 -1.805,0.141 -3,0.141 l -13.657,0 c -0.523,0 -0.996,-0.008 -1.422,-0.031 -0.429,-0.028 -0.726,-0.051 -0.89,-0.063 l -0.266,-0.047 -0.047,0.141 c 0.321,2.258 0.485,5.598 0.485,10.016 l 0,12.218 c 0,4.301 -0.164,7.641 -0.485,10.016 l 0.094,0.141 c 0.551,-0.094 1.395,-0.141 2.531,-0.141 l 13.172,0 c 1.195,0 2.195,0.047 3,0.141 l 0.094,-0.141 c -0.063,-0.949 -0.094,-1.586 -0.094,-1.906 0,-0.344 0.031,-0.778 0.094,-1.297 l -0.094,-0.188 c -4.625,0.383 -9.164,0.579 -13.609,0.579 -0.274,-0.969 -0.406,-3.372 -0.406,-7.204 l 0,-3.875 c 3.496,0 7.218,0.161 11.156,0.485 l 0.14,-0.141 c -0.093,-0.437 -0.14,-0.976 -0.14,-1.609 0,-0.625 0.047,-1.16 0.14,-1.594 l -0.14,-0.141 c -3.274,0.321 -6.992,0.485 -11.156,0.485 l 0,-5.828 z"
                           inkscape:connector-curvature="0"
                           id="path234"
                           style="fill:#000000;fill-opacity:1;fill-rule:nonzero;stroke:none" /><path
                           d="m 225.07,0.895 -25.031,0 0,50.031 50.035,0 0,-50.031 -25.004,0 z"
                           inkscape:connector-curvature="0"
                           id="path236"
                           style="fill:#000000;fill-opacity:1;fill-rule:nonzero;stroke:none" /><path
                           d="m 219.547,24.02 0,-4.297 c 0,-4.168 0.172,-7.508 0.515,-10.016 l -0.109,-0.141 c -0.617,0.094 -1.473,0.141 -2.562,0.141 -1.086,0 -1.93,-0.047 -2.532,-0.141 l -0.093,0.141 c 0.32,2.258 0.484,5.598 0.484,10.016 l 0,12.218 c 0,4.301 -0.164,7.641 -0.484,10.016 l 0.093,0.141 c 0.602,-0.094 1.446,-0.141 2.532,-0.141 0.519,0 1.679,0.055 3.484,0.172 1.801,0.113 2.895,0.172 3.281,0.172 1.332,0 2.453,-0.039 3.36,-0.11 0.914,-0.074 1.957,-0.3 3.125,-0.671 1.164,-0.375 2.125,-0.915 2.875,-1.61 1.746,-1.668 2.625,-3.754 2.625,-6.25 0,-1.93 -0.465,-3.57 -1.391,-4.922 -0.93,-1.355 -2.133,-2.402 -3.609,-3.14 -0.731,-0.375 -1.743,-0.696 -3.032,-0.953 0.778,-1.043 2.524,-3.528 5.235,-7.454 2.715,-3.929 4.539,-6.425 5.468,-7.484 l -0.109,-0.141 c -0.668,0.094 -1.668,0.141 -3,0.141 -1.367,0 -2.367,-0.047 -3,-0.141 -0.262,0.809 -0.879,2.11 -1.844,3.891 -0.968,1.777 -1.945,3.461 -2.921,5.047 -0.18,0.269 -0.481,0.754 -0.907,1.453 -0.418,0.695 -0.738,1.223 -0.953,1.578 -0.211,0.352 -0.496,0.781 -0.859,1.281 -0.367,0.508 -0.711,0.957 -1.031,1.344 -1.356,-0.094 -2.903,-0.14 -4.641,-0.14 z m 4.656,16.125 c -1.187,0 -2.07,-0.02 -2.641,-0.047 -0.562,-0.032 -1.019,-0.145 -1.359,-0.328 -0.344,-0.188 -0.543,-0.403 -0.594,-0.641 -0.043,-0.231 -0.062,-0.621 -0.062,-1.172 l 0,-11.937 2.906,0 c 1.02,0 1.945,0.062 2.781,0.187 0.84,0.133 1.649,0.375 2.422,0.719 0.778,0.351 1.43,0.812 1.953,1.375 0.528,0.558 0.953,1.289 1.266,2.187 0.309,0.895 0.469,1.938 0.469,3.125 0,1.039 -0.153,1.953 -0.453,2.735 -0.305,0.789 -0.696,1.422 -1.172,1.89 -0.469,0.477 -1.035,0.864 -1.688,1.157 -0.656,0.289 -1.293,0.488 -1.906,0.593 -0.617,0.102 -1.258,0.157 -1.922,0.157 z"
                           inkscape:connector-curvature="0"
                           id="path238"
                           style="fill:#ffffff;fill-opacity:1;fill-rule:nonzero;stroke:none" /><path
                           d="m 275.074,0.895 -25.031,0 0,50.031 50.031,0 0,-50.031 -25,0 z"
                           inkscape:connector-curvature="0"
                           id="path240"
                           style="fill:#ffffff;fill-opacity:1;fill-rule:nonzero;stroke:none" /><path
                           d="m 271.109,19.723 c 0,-3.844 0.133,-6.246 0.407,-7.203 1.988,0 4.156,0.046 6.5,0.14 2.339,0.09 4.195,0.192 5.562,0.297 l 2.031,0.141 0.094,-0.188 c -0.062,-0.523 -0.094,-1.082 -0.094,-1.672 0,-0.074 0.032,-0.586 0.094,-1.531 l -0.094,-0.141 c -0.804,0.094 -1.804,0.141 -3,0.141 l -13.656,0 c -0.523,0 -0.996,-0.008 -1.422,-0.031 -0.429,-0.028 -0.726,-0.051 -0.89,-0.063 l -0.266,-0.047 -0.047,0.141 c 0.32,2.258 0.484,5.598 0.484,10.016 l 0,12.218 c 0,4.301 -0.164,7.641 -0.484,10.016 l 0.094,0.141 c 0.551,-0.094 1.394,-0.141 2.531,-0.141 l 13.172,0 c 1.195,0 2.195,0.047 3,0.141 l 0.094,-0.141 c -0.063,-0.949 -0.094,-1.586 -0.094,-1.906 0,-0.344 0.031,-0.778 0.094,-1.297 l -0.094,-0.188 c -4.625,0.383 -9.164,0.579 -13.609,0.579 -0.274,-0.969 -0.407,-3.372 -0.407,-7.204 l 0,-3.875 c 3.496,0 7.219,0.161 11.157,0.485 l 0.14,-0.141 c -0.094,-0.437 -0.14,-0.976 -0.14,-1.609 0,-0.625 0.046,-1.16 0.14,-1.594 l -0.14,-0.141 c -3.274,0.321 -6.993,0.485 -11.157,0.485 l 0,-5.828 z"
                           inkscape:connector-curvature="0"
                           id="path242"
                           style="fill:#000000;fill-opacity:1;fill-rule:nonzero;stroke:none" /><path
                           d="m 325.078,0.895 -25.031,0 0,50.031 50.031,0 0,-50.031 -25,0 z"
                           inkscape:connector-curvature="0"
                           id="path244"
                           style="fill:#000000;fill-opacity:1;fill-rule:nonzero;stroke:none" /><path
                           d="m 316.805,13.816 c 0,-0.593 0.113,-1.019 0.343,-1.265 0.227,-0.25 0.719,-0.442 1.469,-0.563 0.758,-0.125 1.969,-0.187 3.625,-0.187 1.07,0 2.051,0.047 2.938,0.14 0.894,0.09 1.789,0.258 2.687,0.5 0.895,0.239 1.692,0.551 2.391,0.938 0.695,0.394 1.351,0.898 1.969,1.516 0.621,0.621 1.14,1.351 1.546,2.187 0.403,0.84 0.723,1.836 0.954,2.984 0.226,1.145 0.343,2.426 0.343,3.844 0,1.633 -0.144,3.18 -0.422,4.641 -0.281,1.465 -0.769,2.906 -1.453,4.312 -0.679,1.403 -1.539,2.617 -2.578,3.641 -1.043,1.019 -2.387,1.844 -4.031,2.469 -1.637,0.621 -3.496,0.937 -5.578,0.937 -0.688,0 -1.262,-0.027 -1.719,-0.078 -0.461,-0.055 -0.894,-0.148 -1.297,-0.281 -0.406,-0.125 -0.711,-0.332 -0.906,-0.61 -0.188,-0.273 -0.281,-0.617 -0.281,-1.031 l 0,-24.094 z m -2.157,28.141 c 1.059,0 2.438,0.02 4.125,0.063 1.696,0.05 3.071,0.078 4.125,0.078 2.364,0 4.614,-0.457 6.75,-1.36 2.145,-0.898 3.985,-2.105 5.516,-3.625 1.539,-1.523 2.766,-3.336 3.672,-5.437 0.914,-2.094 1.375,-4.285 1.375,-6.563 0,-1.711 -0.184,-3.289 -0.547,-4.734 -0.367,-1.438 -0.855,-2.684 -1.469,-3.734 -0.605,-1.043 -1.347,-1.977 -2.218,-2.797 -0.868,-0.825 -1.786,-1.496 -2.75,-2.016 -0.961,-0.523 -1.993,-0.957 -3.094,-1.297 -1.094,-0.344 -2.16,-0.586 -3.188,-0.719 -1.031,-0.132 -2.082,-0.203 -3.14,-0.203 -1.856,0 -3.586,0.02 -5.188,0.047 -1.605,0.031 -2.929,0.047 -3.969,0.047 -0.523,0 -0.996,-0.008 -1.421,-0.031 -0.43,-0.028 -0.727,-0.051 -0.891,-0.063 l -0.266,-0.047 -0.047,0.141 c 0.321,2.258 0.485,5.598 0.485,10.016 l 0,12.218 c 0,4.301 -0.164,7.641 -0.485,10.016 l 0.094,0.141 c 0.551,-0.094 1.395,-0.141 2.531,-0.141 z"
                           inkscape:connector-curvature="0"
                           id="path246"
                           style="fill:#ffffff;fill-opacity:1;fill-rule:nonzero;stroke:none" /></g></g></g></g></g></g></g></g></g></g></g></svg>